if (_typeface_js && _typeface_js.loadFace) _typeface_js.loadFace({"glyphs":{"0":{"ha":697,"x_min":0,"x_max":0,"o":"m 534 869 b 464 905 515 876 484 892 b 45 726 352 981 120 882 b 220 2 -39 548 75 76 b 561 127 328 -53 509 13 b 599 242 572 151 589 202 b 653 444 609 281 633 372 b 534 869 720 692 684 820 z m 422 444 b 380 300 399 371 380 307 b 351 310 380 273 361 280 b 344 687 319 411 314 668 b 426 672 365 701 400 695 b 422 444 470 634 470 592 z "},"1":{"ha":483,"x_min":0,"x_max":0,"o":"m 374 -9 l 445 -7 l 449 273 b 455 686 452 427 454 613 l 456 818 l 391 860 b 318 915 355 884 322 909 b 201 892 309 931 257 920 b 152 812 150 866 145 858 b 99 650 159 765 145 720 b 105 467 54 582 56 543 b 167 416 131 425 142 416 l 196 416 l 190 357 b 170 222 186 325 177 264 b 155 82 162 180 155 117 b 252 -1 155 12 150 16 b 374 -9 280 -6 335 -9 z "},"2":{"ha":731,"x_min":0,"x_max":0,"o":"m 437 -8 b 678 35 553 -38 601 -29 b 661 128 679 36 671 78 b 641 254 650 179 641 235 b 581 327 641 308 625 327 b 389 270 539 327 425 293 b 372 270 370 257 367 257 b 471 333 375 278 420 307 b 712 653 652 426 712 505 b 292 899 712 910 566 996 b 141 861 243 882 175 865 b 50 715 58 852 50 838 b 29 560 50 643 45 605 l 7 501 l 45 439 b 131 387 89 366 108 355 b 265 516 173 447 210 482 b 300 618 333 557 336 565 b 376 714 248 695 313 777 b 254 439 436 654 401 575 b 57 120 102 298 54 221 b 221 18 59 24 58 25 b 437 -8 309 15 389 5 z "},"3":{"ha":788,"x_min":0,"x_max":0,"o":"m 776 362 b 643 538 776 462 743 506 l 593 555 l 616 590 b 449 921 754 799 649 1006 b 231 859 318 866 274 853 b 120 738 131 874 100 840 b 119 635 132 680 132 666 b 190 524 97 583 94 588 b 354 554 304 448 313 450 b 410 633 382 627 388 636 b 417 555 467 626 469 603 b 368 496 390 531 368 504 b 348 455 368 488 359 469 b 376 406 317 416 322 407 b 460 253 457 406 495 337 b 366 299 441 209 421 218 b 199 368 272 435 257 442 b 111 268 178 342 138 297 b 124 146 49 203 51 188 b 259 56 156 129 216 88 b 376 -17 302 23 355 -10 b 776 362 539 -76 776 148 z "},"4":{"ha":810,"x_min":0,"x_max":0,"o":"m 182 153 b 313 136 203 106 228 103 b 444 111 423 180 505 164 b 565 28 401 74 435 50 b 656 7 602 21 644 12 b 759 27 700 -12 731 -6 l 786 58 l 769 162 b 763 359 751 282 749 340 b 777 869 776 375 788 837 b 589 914 768 893 623 928 b 552 644 565 905 552 809 l 552 488 l 491 460 b 430 437 457 445 430 434 b 473 528 430 439 449 481 b 482 833 534 650 538 785 b 292 905 436 873 340 909 b 222 754 244 901 188 780 b 109 425 260 725 201 551 b 113 261 52 346 52 341 b 182 153 141 225 172 177 z "},"5":{"ha":746,"x_min":0,"x_max":0,"o":"m 704 554 b 433 627 667 638 546 670 b 363 572 421 623 390 598 l 315 525 l 317 612 b 460 689 321 711 304 703 b 602 825 607 675 623 691 b 467 903 586 920 582 922 b 241 883 414 895 313 886 l 110 879 l 70 840 b 41 702 17 789 15 777 b 66 506 59 651 64 610 b 84 366 68 401 72 373 b 305 313 114 349 298 306 b 355 375 309 318 331 346 b 437 399 405 436 420 441 b 253 273 477 304 349 216 b 150 252 224 290 223 289 b 53 214 109 231 66 214 b 46 106 9 215 7 181 b 168 20 89 23 91 21 b 249 10 201 20 238 15 b 513 31 291 -9 459 4 b 704 554 683 117 780 383 z "},"6":{"ha":672,"x_min":0,"x_max":0,"o":"m 272 7 b 706 518 557 -91 851 253 b 367 612 630 655 518 686 b 408 755 351 604 371 674 b 350 896 454 859 453 861 b 132 894 238 934 204 933 b 40 732 66 858 63 853 b 272 7 -26 383 71 76 z m 442 426 b 461 252 472 426 484 321 b 418 229 444 201 435 197 b 442 426 368 327 380 426 z "},"7":{"ha":779,"x_min":0,"x_max":0,"o":"m 759 756 b 733 867 748 797 736 847 b 567 911 723 928 714 930 b 335 900 477 899 405 896 b 192 878 235 907 232 906 b 92 639 59 788 43 749 l 120 578 l 181 584 b 295 590 214 588 265 590 b 355 625 347 590 348 591 b 424 683 363 668 376 679 b 385 528 502 690 491 646 b 208 239 312 447 239 328 b 200 46 184 170 179 52 b 320 16 207 44 261 30 b 536 60 481 -22 485 -21 l 573 120 l 553 174 l 532 227 l 555 289 b 713 578 581 361 649 486 b 759 756 783 679 782 673 z "},"8":{"ha":743,"x_min":0,"x_max":0,"o":"m 236 -4 b 721 184 475 -44 691 40 b 633 467 742 281 706 398 l 602 496 l 637 547 b 665 788 697 634 708 730 b 191 917 604 869 278 959 b 69 505 70 860 -2 618 b 65 386 109 440 109 450 b 236 -4 -43 229 45 28 z m 432 683 b 452 586 502 676 507 651 b 357 593 418 545 395 547 b 432 683 306 655 337 693 z m 366 254 b 375 184 403 211 404 204 b 255 211 328 151 255 168 b 366 254 255 288 315 311 z "},"9":{"ha":717,"x_min":0,"x_max":0,"o":"m 233 227 b 158 90 195 219 140 119 b 381 -9 168 74 289 21 b 496 24 430 -24 439 -22 b 617 824 702 189 768 626 b 40 748 484 998 130 951 b 23 483 10 679 2 556 b 266 354 52 384 120 347 b 345 354 310 356 345 356 b 233 227 345 331 257 231 z m 276 603 b 420 664 282 655 404 707 b 370 567 429 641 404 594 b 276 603 320 528 269 547 z "},"\u0000":{"ha":0,"x_min":0,"x_max":0,"o":""},"\n":{"ha":0,"x_min":0,"x_max":0,"o":""},"\r":{"ha":0,"x_min":0,"x_max":0,"o":""}," ":{"ha":418,"x_min":0,"x_max":0,"o":""},"!":{"ha":421,"x_min":0,"x_max":0,"o":"m 351 903 b 171 972 307 992 309 991 b 25 852 37 953 40 956 b 53 595 13 770 13 765 b 100 338 75 500 97 384 l 108 254 l 170 251 b 273 248 204 249 251 247 l 313 248 l 336 361 b 351 903 423 791 422 760 z m 226 123 b 126 -18 76 154 -10 33 b 319 43 213 -51 319 -17 b 226 123 319 88 295 109 z "},"\"":{"ha":429,"x_min":0,"x_max":0,"o":"m 118 986 b 40 851 2 972 0 969 b 54 754 53 815 57 782 b 77 700 48 715 50 711 b 197 889 144 674 198 759 b 118 986 197 979 184 993 z m 332 986 b 254 851 216 972 214 969 b 267 754 267 815 271 782 b 291 700 262 715 264 711 b 411 889 358 674 412 759 b 332 986 410 979 398 993 z "},"“":{"ha":429,"x_min":0,"x_max":0,"o":"m 118 986 b 40 851 2 972 0 969 b 54 754 53 815 57 782 b 77 700 48 715 50 711 b 197 889 144 674 198 759 b 118 986 197 979 184 993 z m 332 986 b 254 851 216 972 214 969 b 267 754 267 815 271 782 b 291 700 262 715 264 711 b 411 889 358 674 412 759 b 332 986 410 979 398 993 z "},"”":{"ha":429,"x_min":0,"x_max":0,"o":"m 118 986 b 40 851 2 972 0 969 b 54 754 53 815 57 782 b 77 700 48 715 50 711 b 197 889 144 674 198 759 b 118 986 197 979 184 993 z m 332 986 b 254 851 216 972 214 969 b 267 754 267 815 271 782 b 291 700 262 715 264 711 b 411 889 358 674 412 759 b 332 986 410 979 398 993 z "},"#":{"ha":797,"x_min":0,"x_max":0,"o":"m 726 491 b 780 585 770 491 780 508 l 780 654 l 740 654 b 688 746 693 654 688 663 b 579 838 688 822 670 838 b 492 766 488 838 487 837 b 449 654 499 675 491 654 l 414 654 l 420 708 b 249 868 432 824 350 901 b 110 694 106 822 100 814 l 116 624 l 77 624 b 18 551 30 624 26 620 b 84 471 11 490 26 471 b 69 412 143 471 129 416 l 25 408 l 25 277 l 99 277 l 92 227 b 226 98 84 169 106 148 b 316 76 259 85 299 75 l 346 79 l 358 180 b 371 285 365 236 371 284 b 408 287 371 286 388 287 l 443 287 l 443 222 b 459 141 443 176 448 152 b 609 98 480 119 582 91 b 710 263 643 106 713 221 b 738 303 708 292 711 297 b 769 379 769 310 769 310 l 769 449 l 736 452 b 726 491 692 457 682 491 z m 465 476 b 460 444 463 459 461 445 b 425 437 459 444 443 440 b 394 468 391 430 391 430 b 433 507 397 505 399 507 b 465 476 467 507 468 505 z "},"$":{"ha":660,"x_min":0,"x_max":0,"o":"m 642 293 b 598 527 642 365 615 507 b 338 651 553 582 408 651 b 316 694 303 651 298 660 b 443 668 331 721 366 714 b 584 707 511 627 518 629 b 611 784 620 751 622 756 b 457 891 597 817 506 880 b 427 920 436 896 427 904 b 261 975 427 971 356 995 l 212 965 l 218 917 l 225 870 l 169 831 b 30 490 34 738 -21 603 b 240 436 63 419 99 410 b 407 438 380 463 394 463 b 379 380 430 394 421 374 b 62 303 166 412 139 405 b 97 134 -2 218 -6 236 b 224 54 183 49 185 48 l 264 61 l 264 21 b 277 -25 264 -2 270 -22 b 367 -31 284 -28 325 -30 b 475 44 468 -32 484 -21 b 496 102 469 89 470 92 b 642 293 614 144 644 183 z "},"%":{"ha":1028,"x_min":0,"x_max":0,"o":"m 783 541 b 687 112 612 541 534 193 b 960 321 820 42 951 142 b 783 541 967 456 900 540 z m 799 268 b 757 325 763 229 749 248 b 811 366 761 363 796 390 b 799 268 826 341 820 291 z m 661 570 b 769 791 695 590 769 740 b 649 922 769 844 716 902 b 431 665 547 953 560 968 b 273 331 392 573 321 423 b 230 56 170 133 168 119 b 410 78 289 -5 315 -1 b 503 195 479 137 503 166 b 549 322 504 204 524 261 b 611 493 573 384 602 460 b 661 570 625 537 637 556 z m 333 872 b 241 896 315 885 284 893 l 177 900 l 133 855 b 148 519 38 756 46 573 b 333 872 318 427 490 755 z m 286 757 b 274 672 297 717 293 694 b 229 716 244 640 229 655 b 286 757 229 780 273 811 z "},"&":{"ha":976,"x_min":0,"x_max":0,"o":"m 705 602 b 632 606 665 602 632 604 b 714 760 632 623 689 731 b 629 914 764 822 755 839 b 263 922 505 987 416 990 b 119 529 93 847 19 647 l 145 498 l 108 466 b 49 121 18 387 -13 207 b 415 37 112 34 338 -18 b 454 40 454 65 463 65 b 487 -1 449 24 456 15 b 663 3 536 -26 545 -26 l 760 26 l 762 173 b 812 330 765 353 764 350 b 909 457 893 296 906 314 b 705 602 911 582 886 600 z m 418 737 l 440 757 l 437 701 b 413 643 434 654 430 645 b 418 737 360 636 362 686 z m 430 276 b 354 281 344 248 345 247 b 500 322 382 399 500 432 b 430 276 500 301 490 295 z "},"'":{"ha":215,"x_min":0,"x_max":0,"o":"m 118 969 b 40 835 2 956 0 952 b 54 738 53 799 57 766 b 77 684 48 698 50 694 b 197 873 144 657 198 742 b 118 969 197 962 184 977 z "},"‘":{"ha":215,"x_min":0,"x_max":0,"o":"m 118 969 b 40 835 2 956 0 952 b 54 738 53 799 57 766 b 77 684 48 698 50 694 b 197 873 144 657 198 742 b 118 969 197 962 184 977 z "},"’":{"ha":215,"x_min":0,"x_max":0,"o":"m 118 969 b 40 835 2 956 0 952 b 54 738 53 799 57 766 b 77 684 48 698 50 694 b 197 873 144 657 198 742 b 118 969 197 962 184 977 z "},"(":{"ha":506,"x_min":0,"x_max":0,"o":"m 329 557 b 429 823 456 805 445 776 b 268 950 414 867 385 889 b 189 947 228 970 210 973 b 23 370 58 786 -12 542 b 228 -2 46 259 173 29 b 338 1 259 -19 289 -19 b 348 119 387 21 389 33 b 329 557 265 298 259 422 z "},")":{"ha":504,"x_min":0,"x_max":0,"o":"m 316 945 b 237 948 294 972 281 973 b 76 821 120 887 92 865 b 177 555 60 774 49 803 b 157 117 246 420 241 296 b 165 -1 117 32 118 19 b 427 219 267 -43 327 7 b 316 945 538 456 497 723 z "},"*":{"ha":482,"x_min":0,"x_max":0,"o":"m 419 467 b 412 503 367 468 363 484 b 448 578 468 524 474 536 b 379 606 424 619 403 627 b 354 629 352 581 346 586 b 248 707 364 694 333 716 b 144 635 155 698 144 690 b 101 606 144 583 144 583 b 51 599 70 621 68 621 b 25 503 26 565 10 508 b 75 488 31 501 54 494 b 56 430 120 474 117 466 b 44 344 6 401 5 394 b 139 335 72 309 112 306 b 174 296 161 360 174 346 b 197 253 174 271 180 260 b 340 336 279 221 355 265 b 358 360 334 367 335 368 b 457 400 424 340 441 346 b 419 467 473 455 466 466 z "},"+":{"ha":596,"x_min":0,"x_max":0,"o":"m 582 440 b 472 573 576 600 579 596 l 441 566 l 447 631 b 199 735 459 745 347 792 b 181 644 179 728 179 726 l 183 582 l 114 586 b 23 476 9 592 3 584 b 105 381 42 379 48 371 b 192 298 191 395 186 400 b 222 200 197 211 198 207 b 370 213 272 186 324 191 b 416 297 417 236 418 245 b 509 383 416 384 420 387 b 582 440 575 380 583 380 z "},",":{"ha":249,"x_min":0,"x_max":0,"o":"m 187 209 b 56 127 129 275 41 220 b 37 56 61 101 56 84 b 40 -41 6 9 6 -6 b 163 4 79 -82 92 -78 b 187 209 248 101 252 135 z "},"-":{"ha":482,"x_min":0,"x_max":0,"o":"m 453 518 b 256 591 434 603 364 587 b 47 589 158 593 64 592 b 20 484 9 581 22 534 b 27 372 22 429 25 379 b 139 375 33 355 64 356 b 315 396 173 383 252 393 b 453 518 469 405 481 416 z "},".":{"ha":238,"x_min":0,"x_max":0,"o":"m 177 169 b 58 10 67 226 -47 74 b 189 20 107 -20 153 -16 b 177 169 236 67 230 141 z "},"/":{"ha":714,"x_min":0,"x_max":0,"o":"m 600 913 l 551 965 l 480 964 b 363 857 388 964 388 964 b 226 493 332 726 300 641 b 160 336 189 422 160 351 b 108 197 160 321 137 259 b 137 21 50 72 48 83 b 381 281 226 -41 217 -51 b 587 685 461 441 553 623 b 600 913 664 825 665 843 z "},":":{"ha":272,"x_min":0,"x_max":0,"o":"m 219 699 b 131 745 204 729 194 734 b 40 568 50 760 -19 626 b 219 699 120 488 271 599 z m 251 366 b 97 422 238 435 153 466 b 105 207 21 362 26 222 b 251 366 195 191 269 271 z "},";":{"ha":257,"x_min":0,"x_max":0,"o":"m 101 464 b 54 338 37 429 21 388 l 81 297 l 50 257 b 41 171 12 210 10 192 b 231 350 112 121 202 206 b 101 464 253 455 189 511 z m 72 612 b 232 713 154 562 232 610 b 32 709 232 825 60 821 b 72 612 22 669 36 634 z "},"<":{"ha":576,"x_min":0,"x_max":0,"o":"m 426 512 l 386 536 l 465 575 b 529 718 559 623 560 625 b 400 788 497 817 479 827 b 287 741 364 770 326 754 b 68 540 223 721 80 590 b 192 329 59 504 100 435 b 294 199 229 287 275 228 b 496 252 351 111 406 125 b 426 512 593 388 585 418 z "},"=":{"ha":556,"x_min":0,"x_max":0,"o":"m 485 643 b 405 747 509 752 507 755 b 191 733 359 743 263 737 b 20 621 24 725 17 720 b 171 547 21 565 34 558 b 485 643 419 527 462 539 z m 517 396 l 501 434 l 287 434 b 42 335 43 434 64 443 b 70 207 27 265 38 215 b 206 220 100 199 108 200 b 388 247 258 231 340 244 b 517 396 545 259 565 282 z "},">":{"ha":576,"x_min":0,"x_max":0,"o":"m 508 540 b 289 741 496 590 354 721 b 176 787 250 754 212 769 b 47 718 98 826 80 817 b 112 575 16 625 17 623 l 190 536 l 150 512 b 80 252 -9 418 -17 388 b 153 166 105 216 138 178 b 282 199 202 127 242 137 b 384 328 301 228 347 286 b 508 540 477 434 517 504 z "},"?":{"ha":864,"x_min":0,"x_max":0,"o":"m 561 957 b 67 792 377 1050 67 946 b 271 508 67 635 197 455 b 353 554 287 519 323 540 b 426 695 424 591 443 626 l 414 747 l 368 740 b 357 788 315 733 310 753 b 474 760 392 814 429 805 b 447 555 521 712 518 689 b 358 272 358 389 326 285 b 539 358 424 245 460 262 b 773 667 722 579 745 610 b 561 957 831 782 785 844 z m 335 154 b 298 -30 237 125 212 4 b 491 12 359 -55 460 -33 b 335 154 548 93 444 187 z "},"@":{"ha":828,"x_min":0,"x_max":0,"o":"m 789 796 b 447 973 747 934 677 971 b 18 446 182 976 18 774 b 259 -3 18 204 77 95 b 658 89 346 -50 552 -3 b 570 161 723 144 662 194 b 322 717 284 59 124 417 b 569 772 375 797 508 826 b 503 744 598 745 588 741 b 350 591 406 748 398 740 b 419 261 296 426 304 392 b 541 269 467 206 484 207 b 579 284 578 309 579 309 b 733 235 579 245 708 204 b 789 796 801 319 834 646 z m 553 478 b 514 455 524 435 523 434 b 531 569 508 471 521 559 b 579 534 542 579 579 551 b 553 478 579 524 568 499 z "},"A":{"ha":675,"x_min":0,"x_max":0,"o":"m 324 12 b 324 79 324 17 323 47 l 325 137 l 415 81 b 524 6 465 51 514 17 b 593 26 549 -22 553 -21 b 561 748 706 159 692 477 l 530 811 l 554 865 b 385 969 615 1000 584 1019 b 231 938 330 956 261 942 b 123 725 130 925 65 798 b 47 291 182 650 156 504 b -9 141 -7 186 -17 160 b 324 12 11 99 332 -26 z m 362 236 l 328 196 l 322 229 b 331 328 310 286 314 322 b 396 292 352 337 397 312 b 362 236 396 283 381 258 z m 330 515 b 386 647 355 544 378 599 l 393 693 l 420 609 b 448 489 435 562 448 508 b 351 463 448 450 442 449 b 330 515 308 470 303 484 z "},"B":{"ha":685,"x_min":0,"x_max":0,"o":"m 64 286 b 171 15 20 53 21 52 b 322 17 252 -5 310 -4 b 447 34 330 31 350 34 b 649 206 610 36 626 50 b 573 478 668 330 644 415 b 539 513 552 495 537 511 b 590 548 541 514 564 530 b 646 835 684 611 705 718 b 344 931 568 989 467 1022 l 285 887 l 279 912 b 176 932 270 945 238 951 b 83 917 148 924 106 917 b 17 806 34 916 34 917 b 51 524 -3 662 6 582 b 64 286 96 466 96 462 z m 263 657 l 312 685 b 348 612 408 738 422 710 b 292 544 323 578 298 547 b 314 498 273 532 284 511 b 395 300 376 473 430 342 b 309 339 374 275 358 282 l 263 394 z "},"C":{"ha":647,"x_min":0,"x_max":0,"o":"m 296 27 b 586 108 384 -32 485 -3 b 635 210 638 166 659 210 b 517 388 622 210 544 326 b 429 407 486 456 465 460 b 301 338 395 355 339 325 b 281 749 198 373 185 655 b 379 628 341 807 379 760 b 496 508 379 544 385 538 b 607 626 604 479 600 475 b 620 804 610 697 616 777 b 199 980 634 916 564 945 b 28 719 62 993 68 1001 b 174 136 -20 382 -6 324 b 296 27 215 93 270 44 z "},"D":{"ha":735,"x_min":0,"x_max":0,"o":"m 7 344 l 28 259 b 55 125 39 212 52 152 b 182 36 65 53 73 48 b 283 20 234 30 280 23 b 316 35 292 11 304 16 b 362 38 328 53 330 53 b 722 545 492 -24 652 200 b 586 915 756 710 729 783 b 384 929 516 980 503 981 b 331 938 348 913 347 913 b 139 936 308 972 249 971 b 42 906 92 921 49 908 b 44 576 25 901 26 742 l 58 448 l 33 396 z m 308 359 b 320 491 311 386 317 445 b 356 621 325 559 332 584 b 441 628 392 677 393 677 l 479 589 l 424 503 b 344 364 393 456 357 394 b 308 359 314 298 301 296 z "},"E":{"ha":650,"x_min":0,"x_max":0,"o":"m 133 474 l 95 449 b 11 168 18 399 -24 259 b 216 17 35 103 113 46 b 643 296 400 -34 567 75 b 537 496 666 363 670 356 b 412 500 426 613 433 612 b 296 366 375 307 296 215 b 324 419 295 418 296 419 b 384 573 355 419 355 420 b 327 632 388 596 382 603 b 289 715 257 669 255 675 b 326 704 316 748 326 745 b 465 659 326 657 345 651 l 573 666 l 566 764 b 514 870 558 875 552 887 b 485 858 500 863 486 858 b 437 918 483 858 461 885 b 312 947 385 989 371 993 b 98 510 48 742 -10 624 z "},"F":{"ha":596,"x_min":0,"x_max":0,"o":"m 81 113 b 188 41 89 -3 93 -6 b 325 90 219 56 280 78 b 397 163 408 113 441 146 b 284 398 368 174 267 382 b 367 388 286 401 324 396 b 473 462 474 368 473 368 b 287 548 473 570 442 584 b 259 589 259 541 259 542 b 277 631 259 631 261 637 b 465 597 330 610 418 594 l 519 600 l 526 659 b 569 798 530 691 550 754 b 437 960 642 959 619 987 l 359 948 l 363 904 b 292 913 369 854 372 854 b 24 750 162 1011 78 959 b 25 472 -1 652 -1 594 b 81 113 61 307 75 216 z "},"G":{"ha":749,"x_min":0,"x_max":0,"o":"m 29 438 b 65 270 54 364 65 313 b 309 18 65 178 188 50 b 412 15 367 2 357 3 b 682 376 529 42 636 185 b 718 462 692 415 708 454 b 753 626 737 478 764 607 b 639 604 742 643 710 637 b 488 552 601 587 533 563 b 330 478 316 510 330 516 b 404 418 330 439 343 429 b 442 400 425 414 442 406 b 397 180 442 351 407 177 b 309 414 370 189 337 277 b 312 637 272 596 272 600 b 427 629 390 710 442 706 b 561 645 418 580 427 581 b 680 764 703 713 702 713 b 642 880 671 786 654 838 b 478 970 614 978 603 984 b 187 832 364 958 325 939 b 29 438 -19 672 -35 631 z "},"H":{"ha":700,"x_min":0,"x_max":0,"o":"m 39 411 b 26 297 15 361 14 355 b 21 173 37 245 37 228 b 132 61 0 97 -6 104 b 244 26 188 44 239 28 b 334 62 280 13 307 24 l 362 102 l 347 176 b 326 294 339 217 329 270 l 319 337 l 365 319 l 412 302 l 412 178 b 455 28 412 52 415 43 b 681 131 472 22 669 112 b 671 389 684 137 680 253 b 683 892 655 635 656 674 b 547 923 691 963 645 973 b 412 653 391 843 372 805 b 383 552 434 570 433 569 b 326 559 335 536 322 538 b 352 721 328 568 340 642 l 374 866 l 348 901 b 233 948 323 933 315 937 l 145 961 l 85 901 b 19 824 52 869 22 834 b 55 512 14 807 37 606 b 39 411 64 470 61 457 z "},"I":{"ha":369,"x_min":0,"x_max":0,"o":"m 28 189 l 24 106 l 70 59 b 147 23 115 13 135 4 b 218 70 150 28 182 49 b 298 227 291 110 290 109 b 321 697 302 269 306 647 b 360 916 376 884 376 885 b 158 933 329 976 208 987 b 66 856 140 915 99 880 b 15 785 12 816 8 810 b 28 189 24 758 35 346 z "},"J":{"ha":635,"x_min":0,"x_max":0,"o":"m 351 378 b 325 457 343 389 331 424 b 68 447 306 552 312 552 b 31 321 -33 404 -32 406 b 149 154 61 280 114 205 b 281 22 221 49 230 40 b 600 292 390 -15 499 77 b 579 725 646 390 638 553 l 533 858 l 557 892 b 367 941 615 977 585 985 l 200 907 l 152 791 b 83 631 126 727 95 655 b 176 571 56 578 58 577 l 270 565 l 294 604 l 319 643 l 342 551 b 351 378 370 444 376 346 z "},"K":{"ha":725,"x_min":0,"x_max":0,"o":"m 63 289 b 149 26 42 257 96 92 b 241 17 157 16 180 14 b 369 171 355 24 369 41 l 370 265 l 395 224 b 426 147 409 201 423 167 b 515 73 432 114 438 109 b 644 99 635 18 644 20 b 656 299 644 134 650 224 b 566 447 671 460 673 456 b 482 447 526 444 488 444 b 693 617 453 466 601 585 b 726 698 726 628 726 629 l 726 767 l 654 844 b 571 922 614 887 576 922 b 418 736 553 922 497 853 b 379 728 331 606 320 604 b 275 933 442 860 435 874 b 42 809 116 992 98 983 b 54 350 -10 647 -6 503 b 63 289 66 320 69 299 z "},"L":{"ha":610,"x_min":0,"x_max":0,"o":"m 48 425 b 84 304 77 415 77 414 b 196 31 98 54 120 0 b 400 21 246 52 318 49 b 582 116 537 -26 548 -21 b 545 398 633 325 632 332 l 494 437 l 473 409 b 351 284 418 339 379 298 l 320 268 l 327 363 b 485 843 336 506 408 725 b 473 960 513 887 510 916 l 448 988 l 368 951 b 128 886 272 906 231 895 b 24 785 34 877 33 876 b 48 425 -7 480 -4 443 z "},"M":{"ha":833,"x_min":0,"x_max":0,"o":"m 54 280 b 221 26 14 160 34 130 b 273 47 251 10 255 11 b 325 130 282 66 306 103 l 361 180 l 345 222 b 252 583 322 280 246 578 b 272 548 254 586 264 570 b 377 364 338 386 342 379 b 481 451 432 341 440 348 b 539 549 516 538 553 602 b 526 498 535 538 530 515 b 475 310 523 481 500 397 b 458 66 409 72 409 79 b 778 31 640 17 756 5 b 741 356 800 59 781 236 b 760 405 736 371 742 385 b 787 498 783 429 787 442 b 801 633 787 534 793 594 b 774 900 842 829 836 883 b 471 949 494 974 471 978 b 410 712 471 917 417 708 b 395 755 405 715 399 734 b 318 962 381 829 335 953 b 261 962 308 967 285 967 b 186 952 237 956 211 953 b 78 875 157 952 141 941 b 22 718 -15 780 -19 769 b 54 280 87 636 102 427 z "},"N":{"ha":808,"x_min":0,"x_max":0,"o":"m 59 368 b 44 182 51 298 44 214 b 141 52 44 117 42 120 b 322 47 212 4 244 3 b 364 117 370 74 371 75 b 432 378 356 176 373 242 b 498 485 486 503 507 537 b 476 347 495 468 485 406 b 444 190 467 289 452 218 b 507 16 426 127 469 7 b 647 43 519 18 581 30 b 790 212 785 68 775 56 b 774 386 801 325 801 326 b 768 613 741 459 741 465 b 740 912 796 766 789 833 b 543 945 698 979 701 978 b 369 714 420 920 442 949 b 328 673 324 569 310 555 b 270 894 350 813 348 821 b 60 857 171 987 158 984 b 24 683 -13 763 -12 765 b 59 368 70 577 77 519 z "},"O":{"ha":678,"x_min":0,"x_max":0,"o":"m 479 923 b 308 953 439 973 409 978 b 10 468 77 896 -21 736 b 221 36 38 221 107 80 b 596 273 397 -33 552 65 b 627 387 605 312 615 350 b 552 871 712 636 683 827 b 479 923 525 879 498 899 z m 408 449 b 358 399 381 356 372 348 b 372 657 328 505 336 657 b 408 449 424 657 441 560 z "},"P":{"ha":682,"x_min":0,"x_max":0,"o":"m 688 750 b 222 934 688 924 458 1015 b 98 913 185 922 133 913 l 37 913 l 19 867 b 42 673 -2 809 4 755 b 14 244 98 555 89 429 b 138 25 -6 195 85 34 b 362 27 197 14 341 15 b 362 199 387 40 387 85 b 378 281 340 299 339 294 b 688 750 486 243 688 550 z m 408 557 b 347 562 390 507 378 508 b 342 671 315 619 315 618 b 405 708 371 727 383 734 b 408 557 426 682 427 610 z "},"Q":{"ha":713,"x_min":0,"x_max":0,"o":"m 580 928 b 211 939 463 1017 359 1020 b 22 641 53 852 33 821 b 6 486 19 590 12 521 b 175 26 -10 393 105 82 b 437 61 229 -16 373 4 b 551 7 456 78 474 70 b 657 95 601 -34 610 -27 b 659 275 713 241 714 266 b 634 324 616 282 610 293 b 580 928 744 470 712 827 z m 447 457 b 349 471 407 512 396 513 b 339 349 306 434 305 417 b 360 283 354 320 363 291 b 265 446 332 210 254 344 b 500 530 290 677 504 754 b 447 457 499 414 488 399 z "},"R":{"ha":735,"x_min":0,"x_max":0,"o":"m 616 101 b 678 312 704 219 709 237 l 655 370 l 555 383 b 489 419 440 397 414 412 b 639 547 552 425 576 445 b 680 925 752 727 763 837 b 413 940 614 993 549 997 b 306 936 319 901 321 901 b 128 938 290 976 255 976 l 36 910 l 36 737 l 35 565 l 65 538 b 87 451 93 511 94 508 b 5 139 81 400 27 194 b 124 60 -1 124 19 111 b 324 24 267 -8 283 -11 l 354 49 l 321 174 b 290 302 302 243 289 301 b 353 222 292 304 320 268 b 616 101 540 -35 521 -27 z m 394 616 l 372 590 l 335 625 l 297 660 l 355 708 b 431 772 387 735 421 763 b 438 708 460 797 463 778 b 394 616 425 672 405 631 z "},"S":{"ha":703,"x_min":0,"x_max":0,"o":"m 120 884 b 7 451 37 850 11 752 b 64 242 5 288 13 259 b 275 282 113 225 132 228 b 414 329 350 310 412 331 b 460 200 425 319 466 200 b 433 221 455 200 443 209 b 270 228 405 252 360 254 l 189 204 l 190 142 b 292 37 193 45 201 37 b 390 25 334 37 378 32 b 443 6 407 17 425 11 b 540 8 487 -4 483 -5 b 626 114 601 21 616 40 b 654 275 630 142 642 214 l 674 385 l 636 431 b 392 488 573 508 533 517 b 306 528 293 468 288 471 b 439 664 347 651 425 731 b 546 538 454 589 502 533 b 616 654 571 541 577 552 b 683 810 639 715 669 786 l 708 855 l 684 872 b 493 942 622 914 517 952 b 438 958 474 933 464 936 b 259 946 394 995 356 992 b 120 884 215 925 152 897 z "},"T":{"ha":669,"x_min":0,"x_max":0,"o":"m 479 635 b 671 773 542 568 620 624 b 550 953 711 892 636 1004 b 304 952 490 917 438 917 b 44 851 144 994 133 990 b 49 648 -33 731 -32 699 b 190 636 123 601 151 598 b 200 554 237 681 237 679 b 168 43 140 353 127 138 b 296 26 188 -2 202 -4 b 383 46 332 37 371 46 b 486 123 455 46 478 64 b 466 280 495 194 484 280 b 415 506 431 280 415 352 b 479 635 415 687 421 698 z "},"U":{"ha":749,"x_min":0,"x_max":0,"o":"m 237 896 b 37 806 104 971 92 966 b 37 573 -9 673 -9 622 l 70 536 l 51 428 b 216 58 14 214 61 108 b 573 223 387 4 523 66 b 613 273 595 290 597 292 b 688 275 629 253 630 253 b 737 385 752 299 757 309 b 696 751 707 498 695 604 b 580 934 698 937 703 930 b 395 728 384 941 364 919 b 373 357 432 494 424 347 b 340 689 332 365 319 498 b 237 896 355 822 350 833 z "},"V":{"ha":765,"x_min":0,"x_max":0,"o":"m 99 902 b 65 873 91 886 76 873 b 14 804 21 873 14 863 b 2 664 14 773 8 710 b 10 552 -9 588 -9 580 b 187 189 114 400 187 251 b 212 87 187 162 197 119 l 236 31 l 331 19 b 430 2 383 12 428 4 b 508 135 453 -21 485 33 b 534 247 517 180 529 230 b 554 333 539 264 548 302 b 608 466 575 444 583 466 b 714 634 647 466 663 492 b 759 756 728 673 748 728 b 778 826 769 784 777 816 b 509 977 779 884 535 1020 b 458 956 506 972 483 962 l 413 945 l 401 856 b 380 705 395 807 385 739 b 359 564 375 672 365 608 b 340 498 352 520 344 490 b 303 791 330 517 311 665 b 203 945 295 915 287 927 b 99 902 140 960 126 954 z "},"W":{"ha":900,"x_min":0,"x_max":0,"o":"m 487 693 b 414 761 457 752 457 752 b 355 724 386 767 381 763 b 297 645 337 697 318 670 l 267 609 l 273 733 l 279 856 l 221 883 b 150 910 188 898 157 910 b 1 680 132 909 1 708 b 68 527 1 650 48 542 b 61 461 80 517 79 508 b 147 28 -3 295 41 76 b 398 149 244 -16 341 30 l 426 208 l 454 151 b 816 127 531 -5 712 -18 b 802 765 929 282 922 588 b 774 861 774 806 770 820 b 571 938 781 953 631 1010 b 506 879 555 918 525 891 b 470 843 486 867 470 851 b 564 616 470 808 517 694 b 608 525 592 570 612 529 b 487 693 598 515 527 613 z "},"X":{"ha":785,"x_min":0,"x_max":0,"o":"m 91 883 b 30 688 18 794 16 788 l 42 602 l 74 608 b 205 580 176 629 175 629 l 232 534 l 182 502 b 96 46 -5 382 -58 100 b 283 63 161 23 242 31 b 369 116 310 83 339 101 b 398 178 420 141 428 157 b 378 252 368 200 364 215 b 433 199 396 304 402 298 b 605 88 482 36 475 41 b 730 115 648 104 699 115 l 784 115 l 778 219 b 671 405 771 336 776 326 b 587 473 642 428 604 458 l 556 499 l 611 517 b 722 622 718 552 722 556 b 649 940 722 759 680 940 b 416 737 607 940 502 849 l 382 693 l 354 754 b 91 883 261 964 187 1000 z "},"Y":{"ha":683,"x_min":0,"x_max":0,"o":"m 344 271 b 226 231 326 275 292 264 b 116 185 176 205 126 185 b 153 95 80 185 87 168 b 363 33 227 13 244 8 b 662 378 576 78 677 194 b 660 707 644 607 643 650 b 582 914 691 815 682 841 b 381 835 462 1000 381 969 b 328 639 381 736 368 687 b 304 700 266 563 245 616 b 253 856 352 766 353 761 b 85 916 157 946 140 953 b 34 623 -7 853 -22 770 b 49 439 53 573 54 553 b 155 251 40 275 54 251 b 342 368 232 251 281 282 b 395 381 394 442 403 444 b 344 271 384 290 372 263 z "},"Z":{"ha":738,"x_min":0,"x_max":0,"o":"m 522 22 b 695 134 615 2 630 11 b 710 372 738 216 743 284 b 541 343 678 458 672 457 b 515 375 421 239 417 243 b 711 765 692 611 711 649 b 359 929 711 955 579 1017 b 192 887 305 907 249 893 b 38 778 96 877 99 878 l 6 724 l 18 543 b 42 350 25 444 36 357 b 179 401 51 341 83 353 b 296 582 324 474 327 478 l 276 651 l 326 624 b 452 511 395 587 461 527 b 343 449 448 505 399 476 b 52 160 112 334 54 277 b 47 51 51 114 49 66 b 125 27 43 26 44 26 b 522 22 411 31 486 30 z "},"[":{"ha":403,"x_min":0,"x_max":0,"o":"m 335 183 l 280 176 l 274 352 b 261 638 270 449 264 578 l 255 748 l 305 748 b 379 845 371 748 379 758 b 284 961 379 931 379 932 b 56 922 157 1000 95 989 l 28 875 l 28 -11 l 53 -24 b 345 -15 82 -38 288 -32 b 390 139 380 -4 390 29 l 390 190 z "},"\\":{"ha":714,"x_min":0,"x_max":0,"o":"m 605 198 b 554 335 577 258 554 320 b 488 492 554 350 524 421 b 351 856 413 640 381 725 b 233 964 325 963 325 963 l 163 964 l 114 911 b 127 684 49 842 49 824 b 333 280 160 622 253 440 b 584 26 498 -54 485 -41 b 605 198 665 81 663 72 z "},"]":{"ha":406,"x_min":0,"x_max":0,"o":"m 377 437 l 374 875 l 346 923 b 118 961 307 990 245 1000 b 23 846 23 932 23 931 b 97 748 23 759 30 748 l 147 748 l 141 639 b 128 353 138 578 132 450 l 122 176 l 67 183 l 13 190 l 13 139 b 150 -27 13 -11 17 -16 b 364 -16 271 -37 344 -33 b 377 437 379 -4 380 41 z "},"^":{"ha":403,"x_min":0,"x_max":0,"o":"m 265 976 b 94 947 227 1029 94 1007 b 58 841 94 939 78 891 b 54 665 2 694 1 683 b 180 710 132 637 149 643 l 203 760 l 220 719 b 274 679 235 681 239 678 b 388 723 328 680 383 702 b 265 976 391 741 303 923 z "},"_":{"ha":607,"x_min":0,"x_max":0,"o":"m 529 138 b 292 126 514 135 408 129 b 57 107 167 122 72 114 b 9 -65 34 95 10 11 l 8 -92 l 204 -95 b 462 -101 312 -97 428 -99 b 556 -83 508 -102 531 -98 l 589 -62 l 589 24 b 529 138 589 121 576 146 z "},"`":{"ha":211,"x_min":0,"x_max":0,"o":"m 161 838 l 126 908 l 77 887 b 60 778 -4 853 -4 849 b 175 741 123 709 144 702 l 196 768 z "},"a":{"ha":676,"x_min":0,"x_max":0,"o":"m 324 12 b 324 79 324 17 323 47 l 325 137 l 415 81 b 524 6 465 51 514 17 b 593 26 549 -22 553 -21 b 561 748 706 159 692 477 l 530 811 l 554 865 b 385 969 615 1000 584 1019 b 231 938 330 956 261 942 b 123 725 130 925 65 798 b 47 291 182 650 156 504 b -9 141 -7 186 -17 160 b 324 12 11 99 332 -26 z m 362 236 l 328 196 l 322 229 b 331 328 310 286 314 322 b 396 292 352 337 397 312 b 362 236 396 283 381 258 z m 330 515 b 386 647 355 544 378 599 l 393 693 l 420 609 b 448 489 435 562 448 508 b 351 463 448 450 442 449 b 330 515 308 470 303 484 z "},"b":{"ha":685,"x_min":0,"x_max":0,"o":"m 64 286 b 171 15 20 53 21 52 b 322 17 252 -5 310 -4 b 447 34 330 31 350 34 b 649 206 610 36 626 50 b 573 478 668 330 644 415 b 539 513 552 495 537 511 b 590 548 541 514 564 530 b 646 835 684 611 705 718 b 344 931 568 989 467 1022 l 285 887 l 279 912 b 176 932 270 945 238 951 b 83 917 148 924 106 917 b 17 806 34 916 34 917 b 51 524 -3 662 6 582 b 64 286 96 466 96 462 z m 263 657 l 312 685 b 348 612 408 738 422 710 b 292 544 323 578 298 547 b 314 498 273 532 284 511 b 395 300 376 473 430 342 b 309 339 374 275 358 282 l 263 394 z "},"c":{"ha":647,"x_min":0,"x_max":0,"o":"m 296 27 b 586 108 384 -32 485 -3 b 635 210 638 166 659 210 b 517 388 622 210 544 326 b 429 407 486 456 465 460 b 301 338 395 355 339 325 b 281 749 198 373 185 655 b 379 628 341 807 379 760 b 496 508 379 544 385 538 b 607 626 604 479 600 475 b 620 804 610 697 616 777 b 199 980 634 916 564 945 b 28 719 62 993 68 1001 b 174 136 -20 382 -6 324 b 296 27 215 93 270 44 z "},"d":{"ha":735,"x_min":0,"x_max":0,"o":"m 7 344 l 28 259 b 55 125 39 212 52 152 b 182 36 65 53 73 48 b 283 20 234 30 280 23 b 316 35 292 11 304 16 b 362 38 328 53 330 53 b 722 545 492 -24 652 200 b 586 915 756 710 729 783 b 384 929 516 980 503 981 b 331 938 348 913 347 913 b 139 936 308 972 249 971 b 42 906 92 921 49 908 b 44 576 25 901 26 742 l 58 448 l 33 396 z m 308 359 b 320 491 311 386 317 445 b 356 621 325 559 332 584 b 441 628 392 677 393 677 l 479 589 l 424 503 b 344 364 393 456 357 394 b 308 359 314 298 301 296 z "},"e":{"ha":650,"x_min":0,"x_max":0,"o":"m 133 474 l 95 449 b 11 168 18 399 -24 259 b 216 17 35 103 113 46 b 643 296 400 -34 567 75 b 537 496 666 363 670 356 b 412 500 426 613 433 612 b 296 366 375 307 296 215 b 324 419 295 418 296 419 b 384 573 355 419 355 420 b 327 632 388 596 382 603 b 289 715 257 669 255 675 b 326 704 316 748 326 745 b 465 659 326 657 345 651 l 573 666 l 566 764 b 514 870 558 875 552 887 b 485 858 500 863 486 858 b 437 918 483 858 461 885 b 312 947 385 989 371 993 b 98 510 48 742 -10 624 z "},"f":{"ha":594,"x_min":0,"x_max":0,"o":"m 81 113 b 188 41 89 -3 93 -6 b 325 90 219 56 280 78 b 397 163 408 113 441 146 b 284 398 368 174 267 382 b 367 388 286 401 324 396 b 473 462 474 368 473 368 b 287 548 473 570 442 584 b 259 589 259 541 259 542 b 277 631 259 631 261 637 b 465 597 330 610 418 594 l 519 600 l 526 659 b 569 798 530 691 550 754 b 437 960 642 959 619 987 l 359 948 l 363 904 b 292 913 369 854 372 854 b 24 750 162 1011 78 959 b 25 472 -1 652 -1 594 b 81 113 61 307 75 216 z "},"g":{"ha":749,"x_min":0,"x_max":0,"o":"m 29 438 b 65 270 54 364 65 313 b 309 18 65 178 188 50 b 412 15 367 2 357 3 b 682 376 529 42 636 185 b 718 462 692 415 708 454 b 753 626 737 478 764 607 b 639 604 742 643 710 637 b 488 552 601 587 533 563 b 330 478 316 510 330 516 b 404 418 330 439 343 429 b 442 400 425 414 442 406 b 397 180 442 351 407 177 b 309 414 370 189 337 277 b 312 637 272 596 272 600 b 427 629 390 710 442 706 b 561 645 418 580 427 581 b 680 764 703 713 702 713 b 642 880 671 786 654 838 b 478 970 614 978 603 984 b 187 832 364 958 325 939 b 29 438 -19 672 -35 631 z "},"h":{"ha":700,"x_min":0,"x_max":0,"o":"m 39 411 b 26 297 15 361 14 355 b 21 173 37 245 37 228 b 132 61 0 97 -6 104 b 244 26 188 44 239 28 b 334 62 280 13 307 24 l 362 102 l 347 176 b 326 294 339 217 329 270 l 319 337 l 365 319 l 412 302 l 412 178 b 455 28 412 52 415 43 b 681 131 472 22 669 112 b 671 389 684 137 680 253 b 683 892 655 635 656 674 b 547 923 691 963 645 973 b 412 653 391 843 372 805 b 383 552 434 570 433 569 b 326 559 335 536 322 538 b 352 721 328 568 340 642 l 374 866 l 348 901 b 233 948 323 933 315 937 l 145 961 l 85 901 b 19 824 52 869 22 834 b 55 512 14 807 37 606 b 39 411 64 470 61 457 z "},"i":{"ha":369,"x_min":0,"x_max":0,"o":"m 28 189 l 24 106 l 70 59 b 147 23 115 13 135 4 b 218 70 150 28 182 49 b 298 227 291 110 290 109 b 321 697 302 269 306 647 b 360 916 376 884 376 885 b 158 933 329 976 208 987 b 66 856 140 915 99 880 b 15 785 12 816 8 810 b 28 189 24 758 35 346 z "},"j":{"ha":635,"x_min":0,"x_max":0,"o":"m 351 378 b 325 457 343 389 331 424 b 68 447 306 552 312 552 b 31 321 -33 404 -32 406 b 149 154 61 280 114 205 b 281 22 221 49 230 40 b 600 292 390 -15 499 77 b 579 725 646 390 638 553 l 533 858 l 557 892 b 367 941 615 977 585 985 l 200 907 l 152 791 b 83 631 126 727 95 655 b 176 571 56 578 58 577 l 270 565 l 294 604 l 319 643 l 342 551 b 351 378 370 444 376 346 z "},"k":{"ha":725,"x_min":0,"x_max":0,"o":"m 63 289 b 149 26 42 257 96 92 b 241 17 157 16 180 14 b 369 171 355 24 369 41 l 370 265 l 395 224 b 426 147 409 201 423 167 b 515 73 432 114 438 109 b 644 99 635 18 644 20 b 656 299 644 134 650 224 b 566 447 671 460 673 456 b 482 447 526 444 488 444 b 693 617 453 466 601 585 b 726 698 726 628 726 629 l 726 767 l 654 844 b 571 922 614 887 576 922 b 418 736 553 922 497 853 b 379 728 331 606 320 604 b 275 933 442 860 435 874 b 42 809 116 992 98 983 b 54 350 -10 647 -6 503 b 63 289 66 320 69 299 z "},"l":{"ha":610,"x_min":0,"x_max":0,"o":"m 48 425 b 84 304 77 415 77 414 b 196 31 98 54 120 0 b 400 21 246 52 318 49 b 582 116 537 -26 548 -21 b 545 398 633 325 632 332 l 494 437 l 473 409 b 351 284 418 339 379 298 l 320 268 l 327 363 b 485 843 336 506 408 725 b 473 960 513 887 510 916 l 448 988 l 368 951 b 128 886 272 906 231 895 b 24 785 34 877 33 876 b 48 425 -7 480 -4 443 z "},"m":{"ha":833,"x_min":0,"x_max":0,"o":"m 54 280 b 221 26 14 160 34 130 b 273 47 251 10 255 11 b 325 130 282 66 306 103 l 361 180 l 345 222 b 252 583 322 280 246 578 b 272 548 254 586 264 570 b 377 364 338 386 342 379 b 481 451 432 341 440 348 b 539 549 516 538 553 602 b 526 498 535 538 530 515 b 475 310 523 481 500 397 b 458 66 409 72 409 79 b 778 31 640 17 756 5 b 741 356 800 59 781 236 b 760 405 736 371 742 385 b 787 498 783 429 787 442 b 801 633 787 534 793 594 b 774 900 842 829 836 883 b 471 949 494 974 471 978 b 410 712 471 917 417 708 b 395 755 405 715 399 734 b 318 962 381 829 335 953 b 261 962 308 967 285 967 b 186 952 237 956 211 953 b 78 875 157 952 141 941 b 22 718 -15 780 -19 769 b 54 280 87 636 102 427 z "},"n":{"ha":808,"x_min":0,"x_max":0,"o":"m 59 368 b 44 182 51 298 44 214 b 141 52 44 117 42 120 b 322 47 212 4 244 3 b 364 117 370 74 371 75 b 432 378 356 176 373 242 b 498 485 486 503 507 537 b 476 347 495 468 485 406 b 444 190 467 289 452 218 b 507 16 426 127 469 7 b 647 43 519 18 581 30 b 790 212 785 68 775 56 b 774 386 801 325 801 326 b 768 613 741 459 741 465 b 740 912 796 766 789 833 b 543 945 698 979 701 978 b 369 714 420 920 442 949 b 328 673 324 569 310 555 b 270 894 350 813 348 821 b 60 857 171 987 158 984 b 24 683 -13 763 -12 765 b 59 368 70 577 77 519 z "},"o":{"ha":678,"x_min":0,"x_max":0,"o":"m 479 923 b 308 953 439 973 409 978 b 10 468 77 896 -21 736 b 221 36 38 221 107 80 b 596 273 397 -33 552 65 b 627 387 605 312 615 350 b 552 871 712 636 683 827 b 479 923 525 879 498 899 z m 408 449 b 358 399 381 356 372 348 b 372 657 328 505 336 657 b 408 449 424 657 441 560 z "},"p":{"ha":682,"x_min":0,"x_max":0,"o":"m 688 750 b 222 934 688 924 458 1015 b 98 913 185 922 133 913 l 37 913 l 19 867 b 42 673 -2 809 4 755 b 14 244 98 555 89 429 b 138 25 -6 195 85 34 b 362 27 197 14 341 15 b 362 199 387 40 387 85 b 378 281 340 299 339 294 b 688 750 486 243 688 550 z m 408 557 b 347 562 390 507 378 508 b 342 671 315 619 315 618 b 405 708 371 727 383 734 b 408 557 426 682 427 610 z "},"q":{"ha":713,"x_min":0,"x_max":0,"o":"m 580 928 b 211 939 463 1017 359 1020 b 22 641 53 852 33 821 b 6 486 19 590 12 521 b 175 26 -10 393 105 82 b 437 61 229 -16 373 4 b 551 7 456 78 474 70 b 657 95 601 -34 610 -27 b 659 275 713 241 714 266 b 634 324 616 282 610 293 b 580 928 744 470 712 827 z m 447 457 b 349 471 407 512 396 513 b 339 349 306 434 305 417 b 360 283 354 320 363 291 b 265 446 332 210 254 344 b 500 530 290 677 504 754 b 447 457 499 414 488 399 z "},"r":{"ha":735,"x_min":0,"x_max":0,"o":"m 616 101 b 678 312 704 219 709 237 l 655 370 l 555 383 b 489 419 440 397 414 412 b 639 547 552 425 576 445 b 680 925 752 727 763 837 b 413 940 614 993 549 997 b 306 936 319 901 321 901 b 128 938 290 976 255 976 l 36 910 l 36 737 l 35 565 l 65 538 b 87 451 93 511 94 508 b 5 139 81 400 27 194 b 124 60 -1 124 19 111 b 324 24 267 -8 283 -11 l 354 49 l 321 174 b 290 302 302 243 289 301 b 353 222 292 304 320 268 b 616 101 540 -35 521 -27 z m 394 616 l 372 590 l 335 625 l 297 660 l 355 708 b 431 772 387 735 421 763 b 438 708 460 797 463 778 b 394 616 425 672 405 631 z "},"s":{"ha":703,"x_min":0,"x_max":0,"o":"m 120 884 b 7 451 37 850 11 752 b 64 242 5 288 13 259 b 275 282 113 225 132 228 b 414 329 350 310 412 331 b 460 200 425 319 466 200 b 433 221 455 200 443 209 b 270 228 405 252 360 254 l 189 204 l 190 142 b 292 37 193 45 201 37 b 390 25 334 37 378 32 b 443 6 407 17 425 11 b 540 8 487 -4 483 -5 b 626 114 601 21 616 40 b 654 275 630 142 642 214 l 674 385 l 636 431 b 392 488 573 508 533 517 b 306 528 293 468 288 471 b 439 664 347 651 425 731 b 546 538 454 589 502 533 b 616 654 571 541 577 552 b 683 810 639 715 669 786 l 708 855 l 684 872 b 493 942 622 914 517 952 b 438 958 474 933 464 936 b 259 946 394 995 356 992 b 120 884 215 925 152 897 z "},"t":{"ha":669,"x_min":0,"x_max":0,"o":"m 479 635 b 671 773 542 568 620 624 b 550 953 711 892 636 1004 b 304 952 490 917 438 917 b 44 851 144 994 133 990 b 49 648 -33 731 -32 699 b 190 636 123 601 151 598 b 200 554 237 681 237 679 b 168 43 140 353 127 138 b 296 26 188 -2 202 -4 b 383 46 332 37 371 46 b 486 123 455 46 478 64 b 466 280 495 194 484 280 b 415 506 431 280 415 352 b 479 635 415 687 421 698 z "},"u":{"ha":749,"x_min":0,"x_max":0,"o":"m 237 896 b 37 806 104 971 92 966 b 37 573 -9 673 -9 622 l 70 536 l 51 428 b 216 58 14 214 61 108 b 573 223 387 4 523 66 b 613 273 595 290 597 292 b 688 275 629 253 630 253 b 737 385 752 299 757 309 b 696 751 707 498 695 604 b 580 934 698 937 703 930 b 395 728 384 941 364 919 b 373 357 432 494 424 347 b 340 689 332 365 319 498 b 237 896 355 822 350 833 z "},"v":{"ha":765,"x_min":0,"x_max":0,"o":"m 99 902 b 65 873 91 886 76 873 b 14 804 21 873 14 863 b 2 664 14 773 8 710 b 10 552 -9 588 -9 580 b 187 189 114 400 187 251 b 212 87 187 162 197 119 l 236 31 l 331 19 b 430 2 383 12 428 4 b 508 135 453 -21 485 33 b 534 247 517 180 529 230 b 554 333 539 264 548 302 b 608 466 575 444 583 466 b 714 634 647 466 663 492 b 759 756 728 673 748 728 b 778 826 769 784 777 816 b 509 977 779 884 535 1020 b 458 956 506 972 483 962 l 413 945 l 401 856 b 380 705 395 807 385 739 b 359 564 375 672 365 608 b 340 498 352 520 344 490 b 303 791 330 517 311 665 b 203 945 295 915 287 927 b 99 902 140 960 126 954 z "},"w":{"ha":901,"x_min":0,"x_max":0,"o":"m 487 693 b 414 761 457 752 457 752 b 355 724 386 767 381 763 b 297 645 337 697 318 670 l 267 609 l 273 733 l 279 856 l 221 883 b 150 910 188 898 157 910 b 1 680 132 909 1 708 b 68 527 1 650 48 542 b 61 461 80 517 79 508 b 147 28 -3 295 41 76 b 398 149 244 -16 341 30 l 426 208 l 454 151 b 816 127 531 -5 712 -18 b 802 765 929 282 922 588 b 774 861 774 806 770 820 b 571 938 781 953 631 1010 b 506 879 555 918 525 891 b 470 843 486 867 470 851 b 564 616 470 808 517 694 b 608 525 592 570 612 529 b 487 693 598 515 527 613 z "},"x":{"ha":785,"x_min":0,"x_max":0,"o":"m 91 883 b 30 688 18 794 16 788 l 42 602 l 74 608 b 205 580 176 629 175 629 l 232 534 l 182 502 b 96 46 -5 382 -58 100 b 283 63 161 23 242 31 b 369 116 310 83 339 101 b 398 178 420 141 428 157 b 378 252 368 200 364 215 b 433 199 396 304 402 298 b 605 88 482 36 475 41 b 730 115 648 104 699 115 l 784 115 l 778 219 b 671 405 771 336 776 326 b 587 473 642 428 604 458 l 556 499 l 611 517 b 722 622 718 552 722 556 b 649 940 722 759 680 940 b 416 737 607 940 502 849 l 382 693 l 354 754 b 91 883 261 964 187 1000 z "},"y":{"ha":685,"x_min":0,"x_max":0,"o":"m 344 271 b 226 231 326 275 292 264 b 116 185 176 205 126 185 b 153 95 80 185 87 168 b 363 33 227 13 244 8 b 662 378 576 78 677 194 b 660 707 644 607 643 650 b 582 914 691 815 682 841 b 381 835 462 1000 381 969 b 328 639 381 736 368 687 b 304 700 266 563 245 616 b 253 856 352 766 353 761 b 85 916 157 946 140 953 b 34 623 -7 853 -22 770 b 49 439 53 573 54 553 b 155 251 40 275 54 251 b 342 368 232 251 281 282 b 395 381 394 442 403 444 b 344 271 384 290 372 263 z "},"z":{"ha":739,"x_min":0,"x_max":0,"o":"m 524 22 b 697 134 617 2 631 11 b 711 372 740 216 744 284 b 543 343 679 458 674 457 b 517 375 422 239 418 243 b 712 765 693 611 712 649 b 361 929 712 955 580 1017 b 193 887 307 907 250 893 b 39 778 98 877 100 878 l 7 724 l 20 543 b 44 350 27 444 38 357 b 180 401 52 341 85 353 b 298 582 325 474 328 478 l 277 651 l 327 624 b 453 511 396 587 463 527 b 345 449 449 505 400 476 b 53 160 114 334 56 277 b 48 51 52 114 50 66 b 126 27 45 26 45 26 b 524 22 412 31 487 30 z "},"{":{"ha":572,"x_min":0,"x_max":0,"o":"m 457 108 b 402 276 406 129 394 165 b 357 449 410 385 400 426 b 328 509 301 479 301 480 b 360 684 361 544 368 584 b 450 852 350 798 379 852 b 494 959 492 852 521 922 b 240 939 465 999 290 985 b 183 740 209 910 192 854 b 103 570 174 636 155 595 b 67 505 67 552 65 549 b 125 371 71 409 78 394 b 208 163 196 337 208 307 b 310 -26 208 16 217 -2 b 477 -20 344 -35 459 -31 b 457 108 505 -3 490 94 z "},"|":{"ha":310,"x_min":0,"x_max":0,"o":"m 172 1003 b 32 704 19 1032 11 1016 b 52 271 38 611 47 417 b 92 -53 61 -11 65 -46 b 236 -6 169 -74 236 -52 b 284 867 236 16 272 680 b 172 1003 291 983 294 980 z "},"}":{"ha":572,"x_min":0,"x_max":0,"o":"m 468 570 b 389 740 416 595 397 636 b 331 939 379 854 363 910 b 77 959 281 986 107 999 b 121 852 50 922 79 852 b 212 684 192 852 221 798 b 243 509 204 584 211 545 b 215 450 270 480 270 479 b 169 276 172 426 161 386 b 114 108 177 165 166 129 b 114 -26 70 90 70 -13 b 305 -10 152 -38 271 -28 b 364 163 360 18 364 30 b 446 371 364 307 375 337 b 504 505 493 394 500 410 b 468 570 506 549 504 552 z "},"~":{"ha":575,"x_min":0,"x_max":0,"o":"m 428 639 b 358 587 390 643 383 638 b 289 571 327 527 332 528 b 25 412 175 685 -27 564 b 98 372 44 357 59 348 b 219 351 135 395 156 391 b 548 488 318 288 480 356 b 428 639 584 560 531 628 z "}," ":{"ha":418,"x_min":0,"x_max":0,"o":""},"¡":{"ha":364,"x_min":0,"x_max":0,"o":"m 149 484 b 307 497 194 470 277 477 b 177 632 389 551 300 643 b 149 484 55 622 36 518 z m 344 9 b 296 265 321 104 300 219 l 289 347 l 192 354 b 61 240 76 362 88 373 b -4 -190 -7 -90 -16 -153 b 92 -376 14 -242 78 -367 b 348 -343 111 -388 326 -361 b 344 9 387 -310 386 -171 z "},"¢":{"ha":704,"x_min":0,"x_max":0,"o":"m 617 309 b 422 565 403 355 333 447 b 457 531 442 592 444 590 b 558 463 467 482 496 463 b 646 514 636 463 646 468 b 661 597 646 535 653 572 b 560 836 720 761 695 820 l 503 843 l 503 895 b 419 972 503 962 492 972 b 278 842 296 972 260 939 b 273 763 289 780 289 773 b 68 416 145 688 82 583 b 246 183 57 287 101 229 b 310 84 311 162 313 158 b 321 8 309 46 313 18 b 404 -4 331 -4 350 -7 b 501 88 490 1 506 16 l 498 135 l 553 142 b 666 258 643 153 666 177 b 617 309 666 298 666 298 z "},"£":{"ha":604,"x_min":0,"x_max":0,"o":"m 554 252 b 304 254 379 236 297 237 b 310 308 307 263 310 288 l 310 343 l 365 337 b 453 428 434 328 453 348 b 352 523 453 510 435 527 l 285 519 l 286 562 b 315 661 286 587 298 628 b 430 682 350 730 370 734 b 564 749 491 630 494 632 b 533 870 595 801 591 817 b 225 908 437 956 347 968 b 69 595 94 844 58 771 l 76 496 l 45 485 b 45 384 0 469 0 399 b 76 328 73 374 76 369 b 40 157 76 262 58 177 b 27 105 30 146 25 126 l 30 71 l 142 64 b 336 36 204 59 291 47 b 557 132 462 6 493 19 b 554 252 604 214 602 257 z "},"¤":{"ha":586,"x_min":0,"x_max":0,"o":"m 552 395 b 536 453 531 418 528 427 b 512 622 549 497 539 575 b 502 674 495 653 492 665 b 473 752 521 694 516 708 b 371 769 424 802 386 808 b 308 743 362 746 356 743 b 228 728 278 743 242 736 b 190 707 214 720 197 711 b 158 724 183 703 169 711 b 43 662 127 762 89 742 b 45 566 -2 585 -2 581 l 81 555 l 87 463 l 94 371 l 63 339 b 100 211 28 302 29 298 b 213 221 145 157 184 160 b 282 264 233 263 234 264 b 368 280 309 264 347 271 b 434 269 416 300 420 299 b 559 334 459 215 511 242 b 552 395 576 368 576 369 z m 371 458 b 279 524 333 386 279 425 b 350 554 279 604 299 612 b 371 458 383 517 388 490 z "},"¥":{"ha":701,"x_min":0,"x_max":0,"o":"m 625 465 b 572 467 596 464 572 465 b 618 563 572 470 592 513 b 652 824 668 663 673 703 b 548 931 637 910 629 918 b 395 833 424 952 382 925 b 368 589 401 786 385 633 b 337 578 358 561 357 561 b 256 885 308 605 256 801 b 102 908 256 954 208 962 b 123 518 -31 841 -25 714 b 121 447 173 452 174 455 b 59 308 52 435 39 406 l 65 275 l 122 281 b 213 294 154 284 194 290 b 246 279 241 300 246 298 b 156 238 246 251 236 246 l 88 232 l 88 183 b 208 119 89 111 106 102 l 257 127 l 241 88 b 243 35 225 51 226 48 b 388 25 256 25 294 22 l 516 28 l 521 83 l 526 138 l 597 139 l 669 140 l 672 207 l 674 275 l 612 281 b 531 324 537 289 531 292 b 564 344 531 348 534 349 b 638 346 582 340 616 342 l 679 355 l 679 466 z "},"¦":{"ha":375,"x_min":0,"x_max":0,"o":"m 337 82 b 324 288 316 173 313 215 b 187 366 335 356 322 364 b 51 245 61 368 59 366 b 34 84 48 195 40 122 b 122 -18 21 0 20 0 b 332 -16 240 -40 303 -39 l 356 3 z m 63 554 b 306 556 70 542 275 544 b 327 589 328 565 332 571 b 320 870 312 641 308 811 b 210 1000 340 972 324 990 b 25 861 103 1010 5 937 b 46 694 30 842 39 767 b 63 554 53 621 60 558 z "},"§":{"ha":656,"x_min":0,"x_max":0,"o":"m 611 328 b 606 385 591 347 591 351 b 423 713 647 483 519 713 b 313 794 410 713 313 785 b 419 825 313 801 397 825 b 428 805 421 825 425 816 b 484 760 431 794 456 774 l 535 734 l 567 769 b 583 860 603 811 604 815 b 431 946 563 901 509 932 b 48 694 151 998 -67 853 b 64 621 78 653 78 650 b 308 290 5 508 107 369 b 405 233 379 261 405 247 b 178 270 405 186 298 203 b 48 113 86 320 48 274 b 167 25 48 85 108 41 b 617 133 322 -17 551 38 b 611 328 648 178 645 294 z m 450 461 b 404 452 435 438 422 435 b 285 509 396 460 343 486 b 172 596 192 548 154 577 b 298 559 175 598 231 581 b 450 461 429 515 468 490 z "},"¨":{"ha":389,"x_min":0,"x_max":0,"o":"m 354 859 b 246 866 333 881 266 886 b 255 761 226 845 231 785 b 354 859 318 697 414 792 z m 28 860 b 42 754 8 829 16 769 b 156 823 96 722 156 760 b 28 860 156 882 60 909 z "},"©":{"ha":869,"x_min":0,"x_max":0,"o":"m 518 772 b 237 529 424 778 314 682 b 396 280 162 380 201 319 b 590 341 549 250 581 260 b 550 417 596 391 582 417 b 459 540 477 417 439 469 l 467 565 l 481 535 b 577 487 500 496 539 477 l 605 495 l 606 603 b 518 772 608 739 593 767 z m 809 735 b 89 698 671 1014 266 993 b 305 41 -76 423 34 87 b 809 735 656 -20 969 411 z m 506 157 b 155 431 341 60 155 206 b 550 826 155 695 375 915 b 506 157 777 710 750 300 z "},"«":{"ha":778,"x_min":0,"x_max":0,"o":"m 669 467 l 564 567 l 593 607 b 658 684 609 628 638 663 b 608 798 720 749 676 849 b 421 702 565 765 474 719 b 355 617 361 683 354 675 b 428 394 356 525 370 480 b 516 252 458 348 498 284 b 571 178 534 219 559 186 b 767 328 635 133 748 219 b 669 467 774 366 773 367 z m 323 456 l 217 557 l 247 597 b 312 674 263 618 292 653 b 262 788 373 739 329 839 b 74 692 218 755 128 709 b 8 607 14 673 8 665 b 81 384 9 515 24 470 b 170 241 112 337 152 273 b 225 167 188 209 213 176 b 421 318 289 123 401 209 b 323 456 428 355 427 357 z "},"­":{"ha":0,"x_min":0,"x_max":0,"o":""},"®":{"ha":606,"x_min":0,"x_max":0,"o":"m 582 621 b 209 761 558 751 337 834 b 176 192 -31 623 -51 273 b 403 219 250 166 384 181 b 351 271 420 249 382 288 b 118 434 229 207 151 261 b 493 632 67 693 355 845 b 393 413 565 521 489 355 l 359 434 l 389 447 b 312 644 517 501 457 653 b 209 472 217 639 218 640 b 266 312 199 304 194 318 l 322 307 l 322 380 l 355 361 b 582 621 501 275 621 412 z m 351 515 b 315 530 318 484 308 488 b 350 569 322 576 328 582 b 351 515 376 552 376 538 z "},"°":{"ha":383,"x_min":0,"x_max":0,"o":"m 236 659 b 102 322 42 703 -68 427 b 175 303 119 312 151 303 b 236 659 387 303 440 614 z m 236 464 b 164 504 209 399 162 424 b 238 526 166 578 203 589 b 236 464 250 505 250 496 z "},"±":{"ha":600,"x_min":0,"x_max":0,"o":"m 316 268 b 72 255 192 266 83 260 b 80 50 44 243 51 72 b 233 51 106 32 150 32 b 423 75 269 60 355 71 b 575 180 569 85 575 89 b 316 268 575 275 580 273 z m 101 483 b 188 400 187 497 182 501 b 218 302 193 313 194 308 b 366 315 268 288 320 293 l 412 337 l 412 399 b 505 485 412 486 416 489 l 580 481 l 578 542 b 467 675 572 702 575 697 l 436 668 l 443 732 b 194 837 455 847 343 894 b 177 746 175 829 175 827 l 179 684 l 110 688 b 19 578 5 693 -1 686 b 101 483 37 481 44 473 z "},"´":{"ha":211,"x_min":0,"x_max":0,"o":"m 133 887 l 84 908 l 49 838 l 14 768 l 35 741 b 150 778 66 702 87 709 b 133 887 215 849 214 853 z "},"¸":{"ha":188,"x_min":0,"x_max":0,"o":"m 212 -85 b 161 -26 174 -57 157 -37 b 162 49 178 27 178 33 b 80 66 150 61 127 66 l 14 66 l 14 -45 b 73 -162 14 -166 19 -175 b 49 -204 112 -152 97 -179 b 32 -274 0 -229 -6 -254 b 123 -290 48 -283 87 -290 b 247 -192 193 -291 200 -285 b 212 -85 277 -134 277 -134 z "},"»":{"ha":775,"x_min":0,"x_max":0,"o":"m 701 694 b 514 789 647 711 557 757 b 463 676 446 840 402 740 b 529 598 487 651 508 625 l 558 559 l 453 458 b 354 319 348 358 347 357 b 439 184 364 269 393 222 b 605 243 505 130 551 147 b 694 385 623 275 663 339 b 767 608 752 472 766 516 b 701 694 767 667 761 675 z m 355 704 b 167 800 301 721 210 767 b 117 686 99 850 56 750 b 182 608 140 661 162 635 l 212 569 l 106 468 b 8 330 2 368 1 367 b 93 195 17 279 47 233 b 259 253 159 140 205 157 b 347 395 277 285 317 349 b 421 619 405 482 420 527 b 355 704 421 677 415 685 z "},"¿":{"ha":864,"x_min":0,"x_max":0,"o":"m 425 459 b 600 612 538 401 677 523 b 525 644 582 633 565 640 b 425 459 368 659 295 524 z m 595 98 b 514 52 580 88 544 67 b 441 -89 442 16 424 -19 l 453 -140 l 498 -134 b 510 -181 551 -127 556 -147 b 393 -154 475 -208 438 -199 b 420 51 346 -106 349 -83 b 447 341 545 286 550 341 b 188 78 400 341 417 358 b 79 -193 81 -53 45 -141 b 379 -383 108 -237 300 -359 b 772 -265 483 -415 710 -346 b 595 98 859 -152 700 173 z "},"À":{"ha":675,"x_min":0,"x_max":0,"o":"m 561 746 l 530 810 l 554 863 b 385 968 615 998 584 1017 b 231 936 330 954 261 940 b 123 723 130 924 65 796 b 47 289 182 648 156 502 b -9 140 -7 184 -17 158 b 324 10 11 97 332 -27 b 324 77 324 15 323 45 l 325 135 l 415 80 b 524 4 465 49 514 15 b 593 24 549 -24 553 -22 b 561 746 706 157 692 475 z m 362 234 l 328 194 l 322 228 b 331 327 310 284 314 320 b 396 290 352 335 397 310 b 362 234 396 281 381 256 z m 351 461 b 330 513 308 468 303 482 b 386 645 355 542 378 598 l 393 692 l 420 607 b 448 487 435 561 448 507 b 351 461 448 449 442 447 z m 391 1008 l 411 1035 l 376 1105 l 341 1175 l 293 1154 b 275 1045 211 1120 211 1116 b 391 1008 338 976 360 969 z "},"Á":{"ha":675,"x_min":0,"x_max":0,"o":"m 561 746 l 530 810 l 554 863 b 385 968 615 998 584 1017 b 231 936 330 954 261 940 b 123 723 130 924 65 796 b 47 289 182 648 156 502 b -9 140 -7 184 -17 158 b 324 10 11 97 332 -27 b 324 77 324 15 323 45 l 325 135 l 415 80 b 524 4 465 49 514 15 b 593 24 549 -24 553 -22 b 561 746 706 157 692 475 z m 362 234 l 328 194 l 322 228 b 331 327 310 284 314 320 b 396 290 352 335 397 310 b 362 234 396 281 381 256 z m 351 461 b 330 513 308 468 303 482 b 386 645 355 542 378 598 l 393 692 l 420 607 b 448 487 435 561 448 507 b 351 461 448 449 442 447 z m 444 1045 b 427 1154 508 1116 508 1120 l 378 1175 l 343 1105 l 308 1035 l 329 1008 b 444 1045 360 969 381 976 z "},"Â":{"ha":675,"x_min":0,"x_max":0,"o":"m 561 746 l 530 810 l 554 863 b 385 968 615 998 584 1017 b 231 936 330 954 261 940 b 123 723 130 924 65 796 b 47 289 182 648 156 502 b -9 140 -7 184 -17 158 b 324 10 11 97 332 -27 b 324 77 324 15 323 45 l 325 135 l 415 80 b 524 4 465 49 514 15 b 593 24 549 -24 553 -22 b 561 746 706 157 692 475 z m 362 234 l 328 194 l 322 228 b 331 327 310 284 314 320 b 396 290 352 335 397 310 b 362 234 396 281 381 256 z m 351 461 b 330 513 308 468 303 482 b 386 645 355 542 378 598 l 393 692 l 420 607 b 448 487 435 561 448 507 b 351 461 448 449 442 447 z m 347 1032 l 368 1064 l 401 1035 b 474 1025 439 1001 459 998 b 329 1160 508 1090 425 1168 b 265 1096 319 1159 290 1130 l 219 1033 l 247 1014 b 347 1032 286 988 321 994 z "},"Ã":{"ha":675,"x_min":0,"x_max":0,"o":"m 561 746 l 530 810 l 554 863 b 385 968 615 998 584 1017 b 231 936 330 954 261 940 b 123 723 130 924 65 796 b 47 289 182 648 156 502 b -9 140 -7 184 -17 158 b 324 10 11 97 332 -27 b 324 77 324 15 323 45 l 325 135 l 415 80 b 524 4 465 49 514 15 b 593 24 549 -24 553 -22 b 561 746 706 157 692 475 z m 362 234 l 328 194 l 322 228 b 331 327 310 284 314 320 b 396 290 352 335 397 310 b 362 234 396 281 381 256 z m 351 461 b 330 513 308 468 303 482 b 386 645 355 542 378 598 l 393 692 l 420 607 b 448 487 435 561 448 507 b 351 461 448 449 442 447 z m 297 1035 b 325 1041 307 1054 310 1055 b 368 1015 338 1030 353 1021 b 495 1060 423 993 471 1010 b 484 1136 517 1107 514 1125 b 425 1119 450 1149 454 1150 l 400 1092 l 376 1120 b 236 1034 307 1199 187 1125 b 297 1035 250 1008 283 1008 z "},"Ä":{"ha":675,"x_min":0,"x_max":0,"o":"m 561 746 l 530 810 l 554 863 b 385 968 615 998 584 1017 b 231 936 330 954 261 940 b 123 723 130 924 65 796 b 47 289 182 648 156 502 b -9 140 -7 184 -17 158 b 324 10 11 97 332 -27 b 324 77 324 15 323 45 l 325 135 l 415 80 b 524 4 465 49 514 15 b 593 24 549 -24 553 -22 b 561 746 706 157 692 475 z m 362 234 l 328 194 l 322 228 b 331 327 310 284 314 320 b 396 290 352 335 397 310 b 362 234 396 281 381 256 z m 351 461 b 330 513 308 468 303 482 b 386 645 355 542 378 598 l 393 692 l 420 607 b 448 487 435 561 448 507 b 351 461 448 449 442 447 z m 508 1126 b 401 1133 488 1148 420 1153 b 409 1028 381 1112 385 1052 b 508 1126 473 964 568 1059 z m 196 1021 b 311 1090 250 989 311 1027 b 182 1127 311 1149 215 1176 b 196 1021 162 1096 170 1036 z "},"Å":{"ha":675,"x_min":0,"x_max":0,"o":"m 561 746 l 530 810 l 554 863 b 453 983 607 981 591 1011 b 497 1084 480 1010 497 1045 b 212 1165 497 1221 283 1282 b 254 953 171 1098 193 991 b 274 943 261 950 267 946 b 231 936 257 940 242 937 b 123 723 130 924 65 796 b 47 289 182 648 156 502 b -9 140 -7 184 -17 158 b 324 10 11 97 332 -27 b 324 77 324 15 323 45 l 325 135 l 415 80 b 524 4 465 49 514 15 b 593 24 549 -24 553 -22 b 561 746 706 157 692 475 z m 303 1097 b 355 1126 303 1142 326 1155 b 365 1066 377 1103 379 1092 b 303 1097 340 1019 303 1038 z m 362 234 l 328 194 l 322 228 b 331 327 311 284 314 320 b 396 290 352 335 397 310 b 362 234 396 281 381 256 z m 351 461 b 330 513 308 468 303 482 b 386 645 355 542 378 598 l 393 692 l 420 607 b 448 487 435 561 448 507 b 351 461 448 449 442 447 z "},"Æ":{"ha":1044,"x_min":0,"x_max":0,"o":"m 933 494 b 807 499 821 611 828 611 b 691 364 770 305 691 214 b 720 418 691 416 692 418 b 779 571 750 418 750 418 b 722 630 784 594 777 601 b 685 714 653 668 650 673 b 721 702 712 746 721 743 b 860 657 721 655 740 649 l 968 664 l 961 763 b 910 868 953 873 947 885 b 880 856 895 861 882 856 b 832 917 878 856 856 883 b 707 945 780 988 766 991 b 537 796 636 889 579 840 l 530 810 l 554 863 b 385 968 615 998 584 1017 b 231 936 330 954 261 940 b 123 723 130 924 65 796 b 47 289 182 648 156 502 b -9 140 -7 184 -17 158 b 324 10 11 97 332 -27 b 324 77 324 15 323 45 l 325 135 l 415 80 b 524 4 465 49 514 15 b 591 22 548 -23 553 -22 b 612 15 597 19 605 17 b 1038 294 795 -36 963 74 b 933 494 1062 362 1066 354 z m 362 234 l 328 194 l 322 228 b 331 327 311 284 314 320 b 396 290 352 335 397 310 b 362 234 396 281 381 256 z m 351 461 b 330 513 308 468 303 482 b 386 645 355 542 378 598 l 393 692 l 420 607 b 448 487 435 561 448 507 b 351 461 448 449 442 447 z "},"Ç":{"ha":647,"x_min":0,"x_max":0,"o":"m 635 208 b 517 386 622 208 544 325 b 429 405 486 454 465 459 b 301 336 395 353 339 323 b 281 747 198 371 185 653 b 379 627 341 805 379 758 b 496 506 379 542 385 536 b 607 624 604 477 600 473 b 620 802 610 695 616 775 b 199 978 634 914 564 943 b 28 717 62 991 68 1000 b 174 135 -20 381 -6 322 b 286 32 211 96 258 53 l 286 -20 b 345 -137 286 -141 291 -150 b 321 -179 384 -127 369 -154 b 304 -249 272 -204 266 -229 b 395 -265 320 -258 359 -265 b 519 -167 465 -266 472 -260 b 484 -60 549 -109 549 -109 b 433 -1 446 -31 429 -12 b 434 1 433 0 433 0 b 586 107 483 15 534 50 b 635 208 638 164 659 208 z "},"È":{"ha":650,"x_min":0,"x_max":0,"o":"m 537 494 b 412 499 426 611 433 611 b 296 364 375 305 296 214 b 324 418 295 416 296 418 b 384 571 355 418 355 418 b 327 630 388 594 382 601 b 289 714 257 668 255 673 b 326 702 316 746 326 743 b 465 657 326 655 345 649 l 573 664 l 566 763 b 514 868 558 873 552 885 b 485 856 500 861 486 856 b 437 917 483 856 461 883 b 312 945 385 988 371 991 b 98 509 48 740 -10 622 l 133 472 l 95 448 b 11 166 18 398 -24 257 b 216 15 35 101 113 44 b 643 294 400 -36 567 74 b 537 494 666 362 670 354 z m 390 1008 l 411 1035 l 376 1105 l 341 1175 l 292 1154 b 275 1045 211 1120 210 1116 b 390 1008 338 976 359 969 z "},"É":{"ha":650,"x_min":0,"x_max":0,"o":"m 537 494 b 412 499 426 611 433 611 b 296 364 375 305 296 214 b 324 418 295 416 296 418 b 384 571 355 418 355 418 b 327 630 388 594 382 601 b 289 714 257 668 255 673 b 326 702 316 746 326 743 b 465 657 326 655 345 649 l 573 664 l 566 763 b 514 868 558 873 552 885 b 485 856 500 861 486 856 b 437 917 483 856 461 883 b 312 945 385 988 371 991 b 98 509 48 740 -10 622 l 133 472 l 95 448 b 11 166 18 398 -24 257 b 216 15 35 101 113 44 b 643 294 400 -36 567 74 b 537 494 666 362 670 354 z m 423 1045 b 406 1154 488 1116 487 1120 l 358 1175 l 323 1105 l 287 1035 l 308 1008 b 423 1045 339 969 361 976 z "},"Ê":{"ha":650,"x_min":0,"x_max":0,"o":"m 537 494 b 412 499 426 611 433 611 b 296 364 375 305 296 214 b 324 418 295 416 296 418 b 384 571 355 418 355 418 b 327 630 388 594 382 601 b 289 714 257 668 255 673 b 326 702 316 746 326 743 b 465 657 326 655 345 649 l 573 664 l 566 763 b 514 868 558 873 552 885 b 485 856 500 861 486 856 b 437 917 483 856 461 883 b 312 945 385 988 371 991 b 98 509 48 740 -10 622 l 133 472 l 95 448 b 11 166 18 398 -24 257 b 216 15 35 101 113 44 b 643 294 400 -36 567 74 b 537 494 666 362 670 354 z m 339 1032 l 360 1064 l 393 1035 b 466 1025 431 1001 451 998 b 321 1160 500 1090 416 1168 b 257 1096 311 1159 282 1130 l 211 1033 l 239 1014 b 339 1032 278 988 313 994 z "},"Ë":{"ha":650,"x_min":0,"x_max":0,"o":"m 537 494 b 412 499 426 611 433 611 b 296 364 375 305 296 214 b 324 418 295 416 296 418 b 384 571 355 418 355 418 b 327 630 388 594 382 601 b 289 714 257 668 255 673 b 326 702 316 746 326 743 b 465 657 326 655 345 649 l 573 664 l 566 763 b 514 868 558 873 552 885 b 485 856 500 861 486 856 b 437 917 483 856 461 883 b 312 945 385 988 371 991 b 98 509 48 740 -10 622 l 133 472 l 95 448 b 11 166 18 398 -24 257 b 216 15 35 101 113 44 b 643 294 400 -36 567 74 b 537 494 666 362 670 354 z m 515 1126 b 408 1133 495 1148 428 1153 b 417 1028 388 1112 393 1052 b 515 1126 480 964 576 1059 z m 204 1021 b 318 1090 257 989 318 1027 b 190 1127 318 1149 222 1176 b 204 1021 170 1096 178 1036 z "},"Ì":{"ha":369,"x_min":0,"x_max":0,"o":"m 360 914 b 158 932 329 975 208 985 b 66 854 140 913 99 878 b 15 783 12 814 8 808 b 28 187 24 756 35 344 l 24 104 l 70 57 b 147 21 115 12 135 2 b 218 68 150 27 182 48 b 298 226 291 108 290 107 b 321 695 302 268 306 645 b 360 914 376 882 376 883 z m 248 1008 l 269 1035 l 234 1105 l 199 1175 l 150 1154 b 133 1045 69 1120 68 1116 b 248 1008 196 976 217 969 z "},"Í":{"ha":369,"x_min":0,"x_max":0,"o":"m 360 914 b 158 932 329 975 208 985 b 66 854 140 913 99 878 b 15 783 12 814 8 808 b 28 187 24 756 35 344 l 24 104 l 70 57 b 147 21 115 12 135 2 b 218 68 150 27 182 48 b 298 226 291 108 290 107 b 321 695 302 268 306 645 b 360 914 376 882 376 883 z m 281 1045 b 263 1154 345 1116 345 1120 l 215 1175 l 180 1105 l 144 1035 l 165 1008 b 281 1045 196 969 218 976 z "},"Î":{"ha":369,"x_min":0,"x_max":0,"o":"m 360 914 b 158 932 329 975 208 985 b 66 854 140 913 99 878 b 15 783 12 814 8 808 b 28 187 24 756 35 344 l 24 104 l 70 57 b 147 21 115 12 135 2 b 218 68 150 27 182 48 b 298 226 291 108 290 107 b 321 695 302 268 306 645 b 360 914 376 882 376 883 z m 191 1032 l 213 1064 l 245 1035 b 318 1025 284 1001 303 998 b 173 1160 353 1090 269 1168 b 109 1096 164 1159 135 1130 l 63 1033 l 91 1014 b 191 1032 131 988 166 994 z "},"Ï":{"ha":369,"x_min":0,"x_max":0,"o":"m 158 932 b 66 854 140 913 99 878 b 15 783 12 814 8 808 b 28 187 24 756 35 344 l 24 104 l 70 57 b 147 21 115 12 135 2 b 218 68 150 27 182 48 b 298 226 291 108 290 107 b 321 695 302 268 306 645 b 360 914 376 882 376 883 b 158 932 329 975 208 985 z m 361 1126 b 254 1133 341 1148 274 1153 b 262 1028 234 1112 239 1052 b 361 1126 326 964 421 1059 z m 50 1021 b 164 1090 103 989 164 1027 b 35 1127 164 1149 68 1176 b 50 1021 15 1096 23 1036 z "},"Ð":{"ha":781,"x_min":0,"x_max":0,"o":"m 772 737 b 438 895 747 843 581 922 b 331 913 375 884 373 884 b 90 931 291 941 113 954 b 79 751 87 928 82 847 l 74 575 l 41 572 b -3 450 3 568 -3 554 b 61 376 -3 371 -2 370 b 79 375 70 377 79 376 b 93 206 80 373 86 297 b 120 24 101 97 111 36 b 211 15 132 10 145 8 b 364 25 253 19 322 24 b 732 448 544 31 609 106 b 772 737 784 591 792 651 z m 414 361 b 354 340 362 270 354 267 b 399 419 354 396 363 412 b 392 568 437 426 430 564 b 387 674 353 573 348 671 b 506 610 453 678 506 650 b 414 361 506 571 456 433 z "},"Ñ":{"ha":808,"x_min":0,"x_max":0,"o":"m 774 385 b 768 612 741 457 741 464 b 740 910 796 764 789 831 b 543 944 698 977 701 977 b 369 712 420 918 442 947 b 328 671 324 567 310 553 b 270 892 350 811 348 819 b 60 855 171 985 158 983 b 24 681 -13 762 -12 763 b 59 366 70 575 77 517 b 44 180 51 296 44 212 b 141 50 44 115 42 118 b 322 45 212 2 244 1 b 364 115 370 73 371 73 b 432 376 356 174 373 240 b 498 483 486 501 507 535 b 476 346 495 466 485 405 b 444 189 467 287 452 216 b 507 14 426 125 469 5 b 647 41 519 17 581 29 b 790 210 785 67 775 54 b 774 385 801 323 801 325 z m 368 1035 b 396 1041 378 1054 381 1055 b 439 1015 409 1030 423 1021 b 565 1060 494 993 542 1010 b 555 1136 588 1107 585 1125 b 496 1119 521 1149 525 1150 l 471 1092 l 447 1120 b 306 1034 378 1199 258 1125 b 368 1035 320 1008 353 1008 z "},"Ò":{"ha":678,"x_min":0,"x_max":0,"o":"m 552 869 b 479 921 525 878 498 897 b 308 952 439 971 409 977 b 10 466 77 894 -21 734 b 221 34 38 220 107 78 b 596 272 397 -35 552 63 b 627 385 605 310 615 348 b 552 869 712 634 683 826 z m 408 447 b 358 398 381 355 372 347 b 372 655 328 503 336 655 b 408 447 424 655 441 558 z m 385 1008 l 406 1035 l 371 1105 l 335 1175 l 287 1154 b 270 1045 206 1120 205 1116 b 385 1008 333 976 354 969 z "},"Ó":{"ha":678,"x_min":0,"x_max":0,"o":"m 552 869 b 479 921 525 878 498 897 b 308 952 439 971 409 977 b 10 466 77 894 -21 734 b 221 34 38 220 107 78 b 596 272 397 -35 552 63 b 627 385 605 310 615 348 b 552 869 712 634 683 826 z m 408 447 b 358 398 381 355 372 347 b 372 655 328 503 336 655 b 408 447 424 655 441 558 z m 436 1045 b 419 1154 501 1116 500 1120 l 370 1175 l 335 1105 l 300 1035 l 321 1008 b 436 1045 352 969 373 976 z "},"Ô":{"ha":678,"x_min":0,"x_max":0,"o":"m 552 869 b 479 921 525 878 498 897 b 308 952 439 971 409 977 b 10 466 77 894 -21 734 b 221 34 38 220 107 78 b 596 272 397 -35 552 63 b 627 385 605 310 615 348 b 552 869 712 634 683 826 z m 408 447 b 358 398 381 355 372 347 b 372 655 328 503 336 655 b 408 447 424 655 441 558 z m 366 1032 l 387 1064 l 420 1035 b 493 1025 458 1001 478 998 b 348 1160 528 1090 444 1168 b 284 1096 338 1159 309 1130 l 238 1033 l 266 1014 b 366 1032 305 988 340 994 z "},"Õ":{"ha":678,"x_min":0,"x_max":0,"o":"m 552 869 b 479 921 525 878 498 897 b 308 952 439 971 409 977 b 10 466 77 894 -21 734 b 221 34 38 220 107 78 b 596 272 397 -35 552 63 b 627 385 605 310 615 348 b 552 869 712 634 683 826 z m 408 447 b 358 398 381 355 372 347 b 372 655 328 503 336 655 b 408 447 424 655 441 558 z m 308 1035 b 336 1041 318 1054 321 1055 b 379 1015 349 1030 363 1021 b 505 1060 434 993 482 1010 b 495 1136 528 1107 525 1125 b 436 1119 461 1149 465 1150 l 411 1092 l 387 1120 b 246 1034 318 1199 198 1125 b 308 1035 260 1008 293 1008 z "},"Ö":{"ha":678,"x_min":0,"x_max":0,"o":"m 552 869 b 479 921 525 878 498 897 b 308 952 439 971 409 977 b 10 466 77 894 -21 734 b 221 34 38 220 107 78 b 596 272 397 -35 552 63 b 627 385 605 310 615 348 b 552 869 712 634 683 826 z m 408 447 b 358 398 381 355 372 347 b 372 655 328 503 336 655 b 408 447 424 655 441 558 z m 519 1126 b 411 1133 499 1148 431 1153 b 420 1028 391 1112 396 1052 b 519 1126 483 964 579 1059 z m 207 1021 b 321 1090 261 989 321 1027 b 193 1127 321 1149 225 1176 b 207 1021 173 1096 181 1036 z "},"×":{"ha":549,"x_min":0,"x_max":0,"o":"m 461 437 l 434 454 l 483 496 b 375 743 570 571 522 682 b 299 689 355 751 354 750 l 258 643 l 210 693 b 69 676 138 769 129 768 b 63 550 16 593 15 582 b 69 431 135 502 135 508 b 23 338 13 365 10 360 b 139 247 49 295 91 262 l 188 231 l 231 275 b 357 274 291 338 296 338 l 409 219 l 449 265 b 461 437 555 385 555 379 z "},"Ø":{"ha":704,"x_min":0,"x_max":0,"o":"m 636 866 b 600 846 627 860 614 853 b 556 869 587 856 572 864 b 483 921 529 878 502 897 b 312 952 443 971 413 977 b 14 466 81 894 -17 734 b 70 215 26 365 44 281 l 47 185 l 33 133 b 36 81 19 81 20 68 b 93 102 41 85 66 94 b 125 113 103 105 114 109 b 225 34 153 75 186 49 b 600 272 402 -35 557 63 b 631 385 609 310 619 348 b 664 749 682 533 692 661 b 697 796 685 772 689 780 b 636 866 725 857 689 899 z m 376 655 b 398 649 384 655 391 653 b 345 578 381 627 364 603 b 376 655 349 623 360 655 z m 412 447 b 363 396 385 356 377 347 b 417 467 381 420 399 444 b 412 447 416 460 414 454 z "},"Ù":{"ha":749,"x_min":0,"x_max":0,"o":"m 737 383 b 696 750 707 496 695 603 b 580 932 698 936 703 928 b 395 727 384 939 364 917 b 373 355 432 493 424 345 b 340 688 332 363 319 497 b 237 894 355 820 350 831 b 37 805 104 969 92 964 b 37 571 -9 672 -9 620 l 70 534 l 51 426 b 216 57 14 212 61 106 b 573 221 387 2 523 64 b 613 272 595 289 597 291 b 688 273 629 252 630 252 b 737 383 752 297 757 307 z m 411 1008 l 432 1035 l 396 1105 l 361 1175 l 313 1154 b 296 1045 232 1120 231 1116 b 411 1008 358 976 380 969 z "},"Ú":{"ha":749,"x_min":0,"x_max":0,"o":"m 737 383 b 696 750 707 496 695 603 b 580 932 698 936 703 928 b 395 727 384 939 364 917 b 373 355 432 493 424 345 b 340 688 332 363 319 497 b 237 894 355 820 350 831 b 37 805 104 969 92 964 b 37 571 -9 672 -9 620 l 70 534 l 51 426 b 216 57 14 212 61 106 b 573 221 387 2 523 64 b 613 272 595 289 597 291 b 688 273 629 252 630 252 b 737 383 752 297 757 307 z m 416 1045 b 398 1154 480 1116 480 1120 l 350 1175 l 315 1105 l 279 1035 l 300 1008 b 416 1045 331 969 353 976 z "},"Û":{"ha":749,"x_min":0,"x_max":0,"o":"m 737 383 b 696 750 707 496 695 603 b 580 932 698 936 703 928 b 395 727 384 939 364 917 b 373 355 432 493 424 345 b 340 688 332 363 319 497 b 237 894 355 820 350 831 b 37 805 104 969 92 964 b 37 571 -9 672 -9 620 l 70 534 l 51 426 b 216 57 14 212 61 106 b 573 221 387 2 523 64 b 613 272 595 289 597 291 b 688 273 629 252 630 252 b 737 383 752 297 757 307 z m 366 1032 l 387 1064 l 420 1035 b 492 1025 458 1001 478 998 b 348 1160 527 1090 443 1168 b 283 1096 338 1159 309 1130 l 237 1033 l 266 1014 b 366 1032 305 988 340 994 z "},"Ü":{"ha":749,"x_min":0,"x_max":0,"o":"m 737 383 b 696 750 707 496 695 603 b 580 932 698 936 703 928 b 395 727 384 939 364 917 b 373 355 432 493 424 345 b 340 688 332 363 319 497 b 237 894 355 820 350 831 b 37 805 104 969 92 964 b 37 571 -9 672 -9 620 l 70 534 l 51 426 b 216 57 14 212 61 106 b 573 221 387 2 523 64 b 613 272 595 289 597 291 b 688 273 629 252 630 252 b 737 383 752 297 757 307 z m 529 1126 b 422 1133 509 1148 442 1153 b 430 1028 402 1112 407 1052 b 529 1126 494 964 589 1059 z m 218 1021 b 332 1090 271 989 332 1027 b 203 1127 332 1149 236 1176 b 218 1021 183 1096 191 1036 z "},"Ý":{"ha":683,"x_min":0,"x_max":0,"o":"m 660 705 b 582 912 691 814 682 839 b 381 834 462 999 381 967 b 328 637 381 734 368 685 b 304 698 266 561 245 615 b 253 854 352 764 353 759 b 85 914 157 945 140 951 b 34 621 -7 851 -22 769 b 49 437 53 571 54 551 b 155 249 40 273 54 249 b 342 366 232 250 281 281 b 395 379 394 440 403 442 b 344 269 384 288 372 262 b 226 229 326 273 292 262 b 116 183 176 204 126 183 b 153 93 80 183 87 167 b 363 31 227 11 244 6 b 662 376 576 76 677 193 b 660 705 644 605 643 648 z m 413 1045 b 396 1154 478 1116 477 1120 l 347 1175 l 312 1105 l 277 1035 l 298 1008 b 413 1045 329 969 350 976 z "},"Þ":{"ha":672,"x_min":0,"x_max":0,"o":"m 403 753 b 307 837 323 753 318 757 b 288 894 303 863 294 888 b 29 923 276 902 35 930 b 25 590 9 903 6 647 b 46 247 44 532 46 501 b 90 -82 46 -44 49 -65 b 199 -73 119 -93 111 -94 b 290 73 287 -52 288 -50 b 336 176 291 175 294 183 b 602 287 398 166 525 219 b 674 467 649 328 666 371 b 403 753 690 659 600 753 z m 438 443 b 397 387 429 425 411 399 l 373 363 l 362 393 b 344 555 318 513 317 523 l 367 582 l 410 550 b 438 443 458 516 463 496 z "},"ß":{"ha":807,"x_min":0,"x_max":0,"o":"m 695 473 b 659 641 600 568 599 573 b 693 790 717 707 722 728 b 257 891 645 891 439 938 b 93 654 121 855 105 832 b 42 453 86 549 82 533 l 0 365 l 12 292 b 37 63 18 251 30 148 b 57 -103 45 -23 54 -97 b 171 -98 66 -116 76 -116 b 333 -72 215 -90 288 -79 b 415 53 470 -53 472 -50 b 406 713 326 213 321 612 b 455 634 462 779 488 737 b 476 402 411 494 416 442 b 527 345 490 393 513 368 l 554 305 l 533 272 b 486 214 520 251 504 231 b 483 116 454 184 454 175 b 618 86 508 63 520 61 b 695 473 849 146 877 291 z "},"à":{"ha":676,"x_min":0,"x_max":0,"o":"m 561 746 l 530 810 l 554 863 b 385 968 615 999 584 1017 b 231 936 330 954 261 940 b 123 723 130 924 65 796 b 47 289 182 648 156 502 b -9 140 -7 184 -17 158 b 324 10 11 97 332 -27 b 324 77 324 15 323 46 l 325 135 l 415 80 b 524 4 465 49 514 15 b 593 25 549 -23 553 -22 b 561 746 706 157 692 475 z m 362 234 l 328 194 l 322 228 b 331 327 310 284 314 320 b 396 290 352 335 397 310 b 362 234 396 281 381 256 z m 351 462 b 330 514 308 468 303 482 b 386 645 355 542 378 598 l 393 692 l 420 607 b 448 488 435 561 448 507 b 351 462 448 449 442 447 z m 391 1009 l 411 1035 l 376 1105 l 341 1175 l 293 1154 b 275 1045 211 1120 211 1116 b 391 1009 338 976 360 969 z "},"á":{"ha":676,"x_min":0,"x_max":0,"o":"m 561 746 l 530 810 l 554 863 b 385 968 615 999 584 1017 b 231 936 330 954 261 940 b 123 723 130 924 65 796 b 47 289 182 648 156 502 b -9 140 -7 184 -17 158 b 324 10 11 97 332 -27 b 324 77 324 15 323 46 l 325 135 l 415 80 b 524 4 465 49 514 15 b 593 25 549 -23 553 -22 b 561 746 706 157 692 475 z m 362 234 l 328 194 l 322 228 b 331 327 310 284 314 320 b 396 290 352 335 397 310 b 362 234 396 281 381 256 z m 351 462 b 330 514 308 468 303 482 b 386 645 355 542 378 598 l 393 692 l 420 607 b 448 488 435 561 448 507 b 351 462 448 449 442 447 z m 444 1045 b 427 1154 508 1116 508 1120 l 378 1175 l 343 1105 l 308 1035 l 329 1009 b 444 1045 360 969 381 976 z "},"â":{"ha":676,"x_min":0,"x_max":0,"o":"m 561 746 l 530 810 l 554 863 b 385 968 615 999 584 1017 b 231 936 330 954 261 940 b 123 723 130 924 65 796 b 47 289 182 648 156 502 b -9 140 -7 184 -17 158 b 324 10 11 97 332 -27 b 324 77 324 15 323 46 l 325 135 l 415 80 b 524 4 465 49 514 15 b 593 25 549 -23 553 -22 b 561 746 706 157 692 475 z m 362 234 l 328 194 l 322 228 b 331 327 310 284 314 320 b 396 290 352 335 397 310 b 362 234 396 281 381 256 z m 351 462 b 330 514 308 468 303 482 b 386 645 355 542 378 598 l 393 692 l 420 607 b 448 488 435 561 448 507 b 351 462 448 449 442 447 z m 347 1033 l 368 1064 l 401 1035 b 474 1026 439 1001 459 998 b 329 1160 508 1091 425 1169 b 265 1096 319 1159 290 1130 l 219 1033 l 247 1014 b 347 1033 286 988 321 994 z "},"ã":{"ha":676,"x_min":0,"x_max":0,"o":"m 561 746 l 530 810 l 554 863 b 385 968 615 999 584 1017 b 231 936 330 954 261 940 b 123 723 130 924 65 796 b 47 289 182 648 156 502 b -9 140 -7 184 -17 158 b 324 10 11 97 332 -27 b 324 77 324 15 323 46 l 325 135 l 415 80 b 524 4 465 49 514 15 b 593 25 549 -23 553 -22 b 561 746 706 157 692 475 z m 362 234 l 328 194 l 322 228 b 331 327 310 284 314 320 b 396 290 352 335 397 310 b 362 234 396 281 381 256 z m 351 462 b 330 514 308 468 303 482 b 386 645 355 542 378 598 l 393 692 l 420 607 b 448 488 435 561 448 507 b 351 462 448 449 442 447 z m 297 1035 b 325 1041 307 1054 310 1055 b 368 1015 338 1030 353 1022 b 495 1060 423 993 471 1010 b 484 1137 517 1107 514 1125 b 425 1120 450 1150 454 1151 l 400 1093 l 376 1120 b 236 1034 307 1199 187 1125 b 297 1035 250 1008 283 1009 z "},"ä":{"ha":676,"x_min":0,"x_max":0,"o":"m 561 746 l 530 810 l 554 863 b 385 968 615 999 584 1017 b 231 936 330 954 261 940 b 123 723 130 924 65 796 b 47 289 182 648 156 502 b -9 140 -7 184 -17 158 b 324 10 11 97 332 -27 b 324 77 324 15 323 46 l 325 135 l 415 80 b 524 4 465 49 514 15 b 593 25 549 -23 553 -22 b 561 746 706 157 692 475 z m 362 234 l 328 194 l 322 228 b 331 327 310 284 314 320 b 396 290 352 335 397 310 b 362 234 396 281 381 256 z m 351 462 b 330 514 308 468 303 482 b 386 645 355 542 378 598 l 393 692 l 420 607 b 448 488 435 561 448 507 b 351 462 448 449 442 447 z m 508 1126 b 401 1133 488 1148 420 1153 b 409 1028 381 1112 385 1052 b 508 1126 473 964 568 1059 z m 196 1021 b 311 1091 250 990 311 1027 b 182 1127 311 1149 215 1176 b 196 1021 162 1096 170 1036 z "},"å":{"ha":676,"x_min":0,"x_max":0,"o":"m 561 746 l 530 810 l 554 863 b 453 983 607 981 591 1011 b 497 1084 480 1010 497 1045 b 212 1165 497 1221 283 1282 b 254 954 171 1099 193 991 b 274 944 261 950 267 946 b 231 936 257 940 242 938 b 123 723 130 924 65 796 b 47 289 182 648 156 502 b -9 140 -7 184 -17 158 b 324 10 11 97 332 -27 b 324 77 324 15 323 46 l 325 135 l 415 80 b 524 4 465 49 514 15 b 593 25 549 -23 553 -22 b 561 746 706 157 692 475 z m 303 1097 b 355 1126 303 1142 326 1155 b 365 1066 377 1104 379 1093 b 303 1097 340 1019 303 1038 z m 362 234 l 328 194 l 322 228 b 331 327 310 284 314 320 b 396 290 352 335 397 310 b 362 234 396 281 381 256 z m 351 462 b 330 514 308 468 303 482 b 386 645 355 542 378 598 l 393 692 l 420 607 b 448 488 435 561 448 507 b 351 462 448 449 442 447 z "},"æ":{"ha":1044,"x_min":0,"x_max":0,"o":"m 933 494 b 807 499 821 611 828 611 b 691 364 770 305 691 214 b 720 418 691 416 692 418 b 779 571 750 418 750 419 b 722 631 784 595 777 601 b 685 714 653 668 650 673 b 721 703 712 746 721 743 b 860 657 721 655 740 649 l 968 665 l 961 763 b 910 868 953 874 947 885 b 880 856 895 861 882 856 b 832 917 878 856 856 883 b 707 945 780 988 766 991 b 537 796 636 890 579 840 l 530 810 l 554 863 b 385 968 615 999 584 1017 b 231 936 330 954 261 940 b 123 723 130 924 65 796 b 47 289 182 648 156 502 b -9 140 -7 184 -17 158 b 324 10 11 97 332 -27 b 324 77 324 15 323 46 l 325 135 l 415 80 b 524 4 465 49 514 15 b 591 22 548 -23 553 -22 b 612 15 597 20 605 17 b 1038 294 795 -36 963 74 b 933 494 1062 362 1066 354 z m 362 234 l 328 194 l 322 228 b 331 327 310 284 314 320 b 396 290 352 335 397 310 b 362 234 396 281 381 256 z m 351 462 b 330 514 308 468 303 482 b 386 645 355 542 378 598 l 393 692 l 420 607 b 448 488 435 561 448 507 b 351 462 448 449 442 447 z "},"ç":{"ha":647,"x_min":0,"x_max":0,"o":"m 635 208 b 517 386 622 208 544 325 b 429 406 486 454 465 459 b 301 336 395 353 339 323 b 281 748 198 371 185 654 b 379 627 341 805 379 758 b 496 506 379 542 385 536 b 607 624 604 478 600 474 b 620 802 610 695 616 775 b 199 978 634 914 564 943 b 28 717 62 991 68 1000 b 174 135 -20 381 -6 323 b 286 32 211 96 258 53 l 286 -20 b 345 -136 286 -140 291 -150 b 321 -179 384 -126 369 -153 b 304 -249 272 -204 266 -228 b 395 -265 320 -258 359 -265 b 519 -166 465 -265 472 -260 b 484 -60 549 -108 549 -109 b 433 -1 446 -31 429 -12 b 434 1 433 0 433 1 b 586 107 483 15 534 50 b 635 208 638 164 659 208 z "},"è":{"ha":650,"x_min":0,"x_max":0,"o":"m 537 494 b 412 499 426 611 433 611 b 296 364 375 305 296 214 b 324 418 295 416 296 418 b 384 571 355 418 355 419 b 327 631 388 595 382 601 b 289 714 257 668 255 673 b 326 703 316 746 326 743 b 465 657 326 655 345 649 l 573 665 l 566 763 b 514 868 558 874 552 885 b 485 856 500 861 486 856 b 437 917 483 856 461 883 b 312 945 385 988 371 991 b 98 509 48 740 -10 622 l 133 473 l 95 448 b 11 166 18 398 -24 258 b 216 15 35 101 113 44 b 643 294 400 -36 567 74 b 537 494 666 362 670 354 z m 390 1009 l 411 1035 l 376 1105 l 341 1175 l 292 1154 b 275 1045 211 1120 210 1116 b 390 1009 338 976 359 969 z "},"é":{"ha":650,"x_min":0,"x_max":0,"o":"m 537 494 b 412 499 426 611 433 611 b 296 364 375 305 296 214 b 324 418 295 416 296 418 b 384 571 355 418 355 419 b 327 631 388 595 382 601 b 289 714 257 668 255 673 b 326 703 316 746 326 743 b 465 657 326 655 345 649 l 573 665 l 566 763 b 514 868 558 874 552 885 b 485 856 500 861 486 856 b 437 917 483 856 461 883 b 312 945 385 988 371 991 b 98 509 48 740 -10 622 l 133 473 l 95 448 b 11 166 18 398 -24 258 b 216 15 35 101 113 44 b 643 294 400 -36 567 74 b 537 494 666 362 670 354 z m 423 1045 b 406 1154 488 1116 487 1120 l 358 1175 l 323 1105 l 287 1035 l 308 1009 b 423 1045 339 969 361 976 z "},"ê":{"ha":650,"x_min":0,"x_max":0,"o":"m 537 494 b 412 499 426 611 433 611 b 296 364 375 305 296 214 b 324 418 295 416 296 418 b 384 571 355 418 355 419 b 327 631 388 595 382 601 b 289 714 257 668 255 673 b 326 703 316 746 326 743 b 465 657 326 655 345 649 l 573 665 l 566 763 b 514 868 558 874 552 885 b 485 856 500 861 486 856 b 437 917 483 856 461 883 b 312 945 385 988 371 991 b 98 509 48 740 -10 622 l 133 473 l 95 448 b 11 166 18 398 -24 258 b 216 15 35 101 113 44 b 643 294 400 -36 567 74 b 537 494 666 362 670 354 z m 339 1033 l 360 1064 l 393 1035 b 466 1026 431 1001 451 998 b 321 1160 500 1091 416 1169 b 257 1096 311 1159 282 1130 l 211 1033 l 239 1014 b 339 1033 278 988 313 994 z "},"ë":{"ha":650,"x_min":0,"x_max":0,"o":"m 537 494 b 412 499 426 611 433 611 b 296 364 375 305 296 214 b 324 418 295 416 296 418 b 384 571 355 418 355 419 b 327 631 388 595 382 601 b 289 714 257 668 255 673 b 326 703 316 746 326 743 b 465 657 326 655 345 649 l 573 665 l 566 763 b 514 868 558 874 552 885 b 485 856 500 861 486 856 b 437 917 483 856 461 883 b 312 945 385 988 371 991 b 98 509 48 740 -10 622 l 133 473 l 95 448 b 11 166 18 398 -24 258 b 216 15 35 101 113 44 b 643 294 400 -36 567 74 b 537 494 666 362 670 354 z m 515 1126 b 408 1133 495 1148 428 1153 b 417 1028 388 1112 393 1052 b 515 1126 480 964 576 1059 z m 204 1021 b 318 1091 257 990 318 1027 b 190 1127 318 1149 222 1176 b 204 1021 170 1096 178 1036 z "},"ì":{"ha":369,"x_min":0,"x_max":0,"o":"m 360 914 b 158 932 329 975 208 985 b 66 854 140 913 99 878 b 15 783 12 814 8 808 b 28 188 24 756 35 344 l 24 104 l 70 58 b 147 21 115 12 135 2 b 218 68 150 27 182 48 b 298 226 291 109 290 107 b 321 696 302 268 306 645 b 360 914 376 882 376 883 z m 248 1009 l 269 1035 l 234 1105 l 199 1175 l 150 1154 b 133 1045 69 1120 68 1116 b 248 1009 196 976 217 969 z "},"í":{"ha":369,"x_min":0,"x_max":0,"o":"m 360 914 b 158 932 329 975 208 985 b 66 854 140 913 99 878 b 15 783 12 814 8 808 b 28 188 24 756 35 344 l 24 104 l 70 58 b 147 21 115 12 135 2 b 218 68 150 27 182 48 b 298 226 291 109 290 107 b 321 696 302 268 306 645 b 360 914 376 882 376 883 z m 281 1045 b 263 1154 345 1116 345 1120 l 215 1175 l 180 1105 l 144 1035 l 165 1009 b 281 1045 196 969 218 976 z "},"î":{"ha":369,"x_min":0,"x_max":0,"o":"m 360 914 b 158 932 329 975 208 985 b 66 854 140 913 99 878 b 15 783 12 814 8 808 b 28 188 24 756 35 344 l 24 104 l 70 58 b 147 21 115 12 135 2 b 218 68 150 27 182 48 b 298 226 291 109 290 107 b 321 696 302 268 306 645 b 360 914 376 882 376 883 z m 191 1033 l 213 1064 l 245 1035 b 318 1026 284 1001 303 998 b 173 1160 353 1091 269 1169 b 109 1096 163 1159 135 1130 l 63 1033 l 91 1014 b 191 1033 131 988 166 994 z "},"ï":{"ha":369,"x_min":0,"x_max":0,"o":"m 158 932 b 66 854 140 913 99 878 b 15 783 12 814 8 808 b 28 188 24 756 35 344 l 24 104 l 70 58 b 147 21 115 12 135 2 b 218 68 150 27 182 48 b 298 226 291 109 290 107 b 321 696 302 268 306 645 b 360 914 376 882 376 883 b 158 932 329 975 208 985 z m 361 1126 b 254 1133 341 1148 274 1153 b 262 1028 234 1112 239 1052 b 361 1126 326 964 421 1059 z m 50 1021 b 164 1091 103 990 164 1027 b 35 1127 164 1149 68 1176 b 50 1021 15 1096 23 1036 z "},"ð":{"ha":782,"x_min":0,"x_max":0,"o":"m 773 737 b 439 896 749 843 582 922 b 333 913 376 884 374 884 b 91 932 292 941 114 954 b 80 751 88 929 83 847 l 75 575 l 43 572 b -1 451 4 569 -1 554 b 62 376 -2 371 0 370 b 81 375 72 377 80 377 b 94 207 81 373 87 297 b 121 25 103 97 112 36 b 212 15 133 10 147 8 b 365 25 254 19 323 24 b 734 448 546 31 611 106 b 773 737 785 591 793 651 z m 415 361 b 355 340 364 271 355 267 b 401 419 355 396 364 412 b 393 568 438 426 431 564 b 388 674 354 573 349 671 b 508 610 455 678 508 650 b 415 361 508 571 457 434 z "},"ñ":{"ha":808,"x_min":0,"x_max":0,"o":"m 774 385 b 768 612 741 458 741 464 b 740 910 796 765 789 832 b 543 944 698 977 701 977 b 369 713 420 918 442 947 b 328 671 324 568 310 553 b 270 892 350 812 348 819 b 60 855 171 985 158 983 b 24 681 -13 762 -12 763 b 59 367 70 576 77 517 b 44 180 51 296 44 213 b 141 51 44 115 42 118 b 322 45 212 2 244 1 b 364 115 370 73 371 73 b 432 377 356 174 373 240 b 498 484 486 501 507 535 b 476 346 495 467 485 405 b 444 189 467 287 452 217 b 507 14 426 126 469 5 b 647 41 519 17 581 29 b 790 210 785 67 775 55 b 774 385 801 323 801 325 z m 368 1035 b 396 1041 378 1054 381 1055 b 439 1015 409 1030 423 1022 b 565 1060 494 993 542 1010 b 555 1137 588 1107 585 1125 b 496 1120 521 1150 525 1151 l 471 1093 l 447 1120 b 306 1034 378 1199 258 1125 b 368 1035 320 1008 353 1009 z "},"ò":{"ha":678,"x_min":0,"x_max":0,"o":"m 552 869 b 479 921 525 878 498 898 b 308 952 439 972 409 977 b 10 466 77 894 -21 734 b 221 34 38 220 107 78 b 596 272 397 -35 552 63 b 627 385 605 310 615 348 b 552 869 712 634 683 826 z m 408 447 b 358 398 381 355 372 347 b 372 656 328 503 336 656 b 408 447 424 656 441 558 z m 385 1009 l 406 1035 l 371 1105 l 335 1175 l 287 1154 b 270 1045 206 1120 205 1116 b 385 1009 333 976 354 969 z "},"ó":{"ha":678,"x_min":0,"x_max":0,"o":"m 552 869 b 479 921 525 878 498 898 b 308 952 439 972 409 977 b 10 466 77 894 -21 734 b 221 34 38 220 107 78 b 596 272 397 -35 552 63 b 627 385 605 310 615 348 b 552 869 712 634 683 826 z m 408 447 b 358 398 381 355 372 347 b 372 656 328 503 336 656 b 408 447 424 656 441 558 z m 436 1045 b 419 1154 501 1116 500 1120 l 370 1175 l 335 1105 l 300 1035 l 321 1009 b 436 1045 352 969 373 976 z "},"ô":{"ha":678,"x_min":0,"x_max":0,"o":"m 552 869 b 479 921 525 878 498 898 b 308 952 439 972 409 977 b 10 466 77 894 -21 734 b 221 34 38 220 107 78 b 596 272 397 -35 552 63 b 627 385 605 310 615 348 b 552 869 712 634 683 826 z m 408 447 b 358 398 381 355 372 347 b 372 656 328 503 336 656 b 408 447 424 656 441 558 z m 366 1033 l 387 1064 l 420 1035 b 493 1026 458 1001 478 998 b 348 1160 528 1091 444 1169 b 284 1096 338 1159 309 1130 l 238 1033 l 266 1014 b 366 1033 305 988 340 994 z "},"õ":{"ha":678,"x_min":0,"x_max":0,"o":"m 552 869 b 479 921 525 878 498 898 b 308 952 439 972 409 977 b 10 466 77 894 -21 734 b 221 34 38 220 107 78 b 596 272 397 -35 552 63 b 627 385 605 310 615 348 b 552 869 712 634 683 826 z m 408 447 b 358 398 381 355 372 347 b 372 656 328 503 336 656 b 408 447 424 656 441 558 z m 308 1035 b 336 1041 318 1054 321 1055 b 379 1015 349 1030 363 1022 b 505 1060 434 993 482 1010 b 495 1137 528 1107 525 1125 b 436 1120 461 1150 465 1151 l 411 1093 l 387 1120 b 246 1034 318 1199 198 1125 b 308 1035 260 1008 293 1009 z "},"ö":{"ha":678,"x_min":0,"x_max":0,"o":"m 552 869 b 479 921 525 878 498 898 b 308 952 439 972 409 977 b 10 466 77 894 -21 734 b 221 34 38 220 107 78 b 596 272 397 -35 552 63 b 627 385 605 310 615 348 b 552 869 712 634 683 826 z m 408 447 b 358 398 381 355 372 347 b 372 656 328 503 336 656 b 408 447 424 656 441 558 z m 519 1126 b 411 1133 499 1148 431 1153 b 420 1028 391 1112 396 1052 b 519 1126 483 964 579 1059 z m 207 1021 b 321 1091 261 990 321 1027 b 193 1127 321 1149 225 1176 b 207 1021 173 1096 181 1036 z "},"÷":{"ha":622,"x_min":0,"x_max":0,"o":"m 252 628 b 363 778 360 582 448 701 b 286 807 337 800 320 807 b 252 628 178 807 152 672 z m 534 559 b 88 581 490 583 119 601 b 80 431 64 566 58 447 b 492 433 98 418 403 420 b 534 559 545 441 577 536 z m 299 398 b 239 191 188 398 142 240 b 418 261 313 153 404 188 b 299 398 434 345 388 398 z "},"ø":{"ha":704,"x_min":0,"x_max":0,"o":"m 636 866 b 600 846 627 861 614 854 b 556 869 587 856 572 864 b 483 921 529 878 502 898 b 312 952 443 972 413 977 b 14 466 81 894 -17 734 b 70 215 26 365 44 281 l 47 186 l 33 133 b 36 81 19 82 20 68 b 92 103 41 85 66 95 b 125 113 103 105 114 109 b 225 34 153 75 186 49 b 600 272 402 -35 557 63 b 631 385 609 310 619 348 b 664 749 682 533 692 661 b 697 797 685 773 689 781 b 636 866 725 857 689 899 z m 376 656 b 398 649 384 656 391 653 b 346 578 381 627 364 603 b 376 656 349 623 360 656 z m 412 447 b 363 396 385 356 377 347 b 417 467 381 420 399 444 b 412 447 416 460 414 454 z "},"ù":{"ha":749,"x_min":0,"x_max":0,"o":"m 737 383 b 696 750 707 496 695 603 b 580 933 698 936 703 928 b 395 727 384 939 364 917 b 373 355 432 493 424 346 b 340 688 332 363 319 497 b 237 895 355 820 350 831 b 37 805 104 969 92 964 b 37 571 -9 672 -9 621 l 70 534 l 51 426 b 216 57 14 212 61 107 b 573 221 387 2 523 65 b 613 272 595 289 597 291 b 688 274 629 252 630 252 b 737 383 752 297 757 308 z m 411 1009 l 432 1035 l 396 1105 l 361 1175 l 313 1154 b 296 1045 232 1120 231 1116 b 411 1009 358 976 380 969 z "},"ú":{"ha":749,"x_min":0,"x_max":0,"o":"m 737 383 b 696 750 707 496 695 603 b 580 933 698 936 703 928 b 395 727 384 939 364 917 b 373 355 432 493 424 346 b 340 688 332 363 319 497 b 237 895 355 820 350 831 b 37 805 104 969 92 964 b 37 571 -9 672 -9 621 l 70 534 l 51 426 b 216 57 14 212 61 107 b 573 221 387 2 523 65 b 613 272 595 289 597 291 b 688 274 629 252 630 252 b 737 383 752 297 757 308 z m 416 1045 b 398 1154 480 1116 480 1120 l 350 1175 l 315 1105 l 279 1035 l 300 1009 b 416 1045 331 969 353 976 z "},"û":{"ha":749,"x_min":0,"x_max":0,"o":"m 737 383 b 696 750 707 496 695 603 b 580 933 698 936 703 928 b 395 727 384 939 364 917 b 373 355 432 493 424 346 b 340 688 332 363 319 497 b 237 895 355 820 350 831 b 37 805 104 969 92 964 b 37 571 -9 672 -9 621 l 70 534 l 51 426 b 216 57 14 212 61 107 b 573 221 387 2 523 65 b 613 272 595 289 597 291 b 688 274 629 252 630 252 b 737 383 752 297 757 308 z m 366 1033 l 387 1064 l 420 1035 b 492 1026 458 1001 478 998 b 348 1160 527 1091 443 1169 b 283 1096 338 1159 309 1130 l 237 1033 l 266 1014 b 366 1033 305 988 340 994 z "},"ü":{"ha":749,"x_min":0,"x_max":0,"o":"m 737 383 b 696 750 707 496 695 603 b 580 933 698 936 703 928 b 395 727 384 939 364 917 b 373 355 432 493 424 346 b 340 688 332 363 319 497 b 237 895 355 820 350 831 b 37 805 104 969 92 964 b 37 571 -9 672 -9 621 l 70 534 l 51 426 b 216 57 14 212 61 107 b 573 221 387 2 523 65 b 613 272 595 289 597 291 b 688 274 629 252 630 252 b 737 383 752 297 757 308 z m 529 1126 b 422 1133 509 1148 442 1153 b 430 1028 402 1112 407 1052 b 529 1126 494 964 589 1059 z m 218 1021 b 332 1091 271 990 332 1027 b 203 1127 332 1149 236 1176 b 218 1021 183 1096 191 1036 z "},"ý":{"ha":685,"x_min":0,"x_max":0,"o":"m 660 705 b 582 912 691 814 682 839 b 381 834 462 999 381 967 b 328 637 381 734 368 685 b 304 698 266 562 245 615 b 253 854 352 764 353 760 b 85 914 157 945 140 951 b 34 621 -7 851 -22 769 b 49 437 53 571 54 551 b 155 250 40 273 54 249 b 342 366 232 250 281 281 b 395 379 394 440 403 442 b 344 269 384 288 372 262 b 226 229 326 274 292 262 b 116 183 176 204 126 183 b 153 93 80 183 87 167 b 363 31 227 11 244 6 b 662 376 576 76 677 193 b 660 705 644 605 643 649 z m 413 1045 b 396 1154 478 1116 477 1120 l 347 1175 l 312 1105 l 277 1035 l 298 1009 b 413 1045 329 969 350 976 z "},"þ":{"ha":672,"x_min":0,"x_max":0,"o":"m 403 754 b 307 837 323 754 318 757 b 288 894 303 863 294 889 b 29 923 276 902 35 930 b 25 590 9 904 6 647 b 46 247 44 532 46 501 b 90 -82 46 -44 49 -65 b 199 -73 119 -93 111 -94 b 290 73 287 -51 288 -50 b 336 176 291 176 294 183 b 602 287 398 166 525 219 b 674 467 649 328 666 371 b 403 754 690 659 600 754 z m 438 443 b 397 387 429 425 411 399 l 373 364 l 362 393 b 344 555 318 514 317 523 l 367 582 l 410 551 b 438 443 458 516 463 496 z "},"ÿ":{"ha":685,"x_min":0,"x_max":0,"o":"m 660 705 b 582 912 691 814 682 839 b 381 834 462 999 381 967 b 328 637 381 734 368 685 b 304 698 266 562 245 615 b 253 854 352 764 353 760 b 85 914 157 945 140 951 b 34 621 -7 851 -22 769 b 49 437 53 571 54 551 b 155 250 40 273 54 249 b 342 366 232 250 281 281 b 395 379 394 440 403 442 b 344 269 384 288 372 262 b 226 229 326 274 292 262 b 116 183 176 204 126 183 b 153 93 80 183 87 167 b 363 31 227 11 244 6 b 662 376 576 76 677 193 b 660 705 644 605 643 649 z m 511 1126 b 404 1133 491 1148 424 1153 b 412 1028 384 1112 389 1052 b 511 1126 476 964 571 1059 z m 200 1021 b 314 1091 253 990 314 1027 b 185 1127 314 1149 218 1176 b 200 1021 165 1096 173 1036 z "},"Œ":{"ha":1067,"x_min":0,"x_max":0,"o":"m 955 494 b 829 499 844 611 851 611 b 713 364 793 305 714 214 b 742 418 713 416 714 418 b 802 571 772 418 773 418 b 744 630 806 594 800 601 b 707 714 675 668 672 673 b 744 702 734 746 744 743 b 882 657 744 655 762 649 l 990 664 l 983 763 b 932 868 975 873 970 885 b 902 856 918 861 904 856 b 854 917 900 856 879 883 b 730 945 803 988 788 991 b 604 840 681 907 639 872 b 552 869 589 853 571 863 b 479 921 525 878 498 897 b 308 952 439 971 409 977 b 10 466 77 894 -21 734 b 221 34 38 220 107 78 b 498 80 328 -8 427 12 b 634 15 534 53 581 30 b 1061 294 817 -36 985 74 b 955 494 1084 362 1088 354 z m 408 447 b 358 398 381 355 372 347 b 372 655 328 503 336 655 b 408 447 424 655 441 558 z "},"œ":{"ha":1067,"x_min":0,"x_max":0,"o":"m 955 494 b 829 499 844 611 851 611 b 713 364 793 305 714 214 b 742 418 713 416 714 418 b 802 571 772 418 773 419 b 744 631 806 595 800 601 b 707 714 675 668 672 673 b 744 703 734 746 744 743 b 882 657 744 655 762 649 l 990 665 l 983 763 b 932 868 975 874 970 885 b 902 856 918 861 904 856 b 854 917 900 856 879 883 b 730 945 803 988 788 991 b 604 840 681 907 639 872 b 552 869 589 853 571 863 b 479 921 525 878 498 898 b 308 952 439 972 409 977 b 10 466 77 894 -21 734 b 221 34 38 220 107 78 b 498 80 328 -8 427 12 b 634 15 534 53 581 30 b 1061 294 817 -36 985 74 b 955 494 1084 362 1088 354 z m 408 447 b 358 398 381 355 372 347 b 372 656 328 503 336 656 b 408 447 424 656 441 558 z "},"Š":{"ha":703,"x_min":0,"x_max":0,"o":"m 439 662 b 546 537 454 587 502 531 b 616 652 571 540 577 550 b 683 809 639 714 669 784 l 708 853 l 684 870 b 493 940 622 912 517 951 b 438 956 474 931 464 934 b 259 944 394 993 356 991 b 120 882 215 923 152 895 b 7 449 37 849 11 750 b 64 240 5 287 13 258 b 275 280 113 223 132 226 b 414 328 350 309 412 330 b 460 199 425 317 466 199 b 433 219 455 199 443 208 b 270 226 405 250 360 252 l 189 203 l 190 140 b 292 36 193 43 201 36 b 390 24 334 36 378 30 b 443 4 407 15 425 9 b 540 6 487 -6 483 -6 b 626 112 601 19 616 38 b 654 273 630 140 642 212 l 674 383 l 636 429 b 392 487 573 507 533 516 b 306 526 293 466 288 469 b 439 662 347 650 425 729 z m 396 999 b 460 1063 406 1000 435 1029 l 506 1126 l 478 1145 b 378 1127 439 1171 404 1165 l 357 1095 l 324 1124 b 251 1134 286 1158 266 1161 b 396 999 217 1069 300 991 z "},"š":{"ha":703,"x_min":0,"x_max":0,"o":"m 439 662 b 546 537 454 587 502 532 b 616 652 571 540 577 550 b 683 809 639 714 669 784 l 708 853 l 684 870 b 493 940 622 912 517 951 b 438 956 474 931 464 934 b 259 944 394 993 356 991 b 120 882 215 923 152 895 b 7 449 37 849 11 750 b 64 240 5 287 13 258 b 275 280 113 223 132 226 b 414 328 350 309 412 330 b 460 199 425 317 466 199 b 433 219 455 199 443 208 b 270 226 405 250 360 252 l 189 203 l 190 141 b 292 36 193 43 201 36 b 390 24 334 36 378 30 b 443 4 407 16 425 9 b 540 6 487 -6 483 -6 b 626 112 601 19 616 39 b 654 273 630 140 642 213 l 674 383 l 636 430 b 392 487 573 507 533 516 b 306 527 293 467 288 469 b 439 662 347 650 425 730 z m 396 999 b 460 1063 406 1000 435 1029 l 506 1126 l 478 1145 b 378 1127 439 1171 404 1165 l 357 1095 l 324 1124 b 251 1134 286 1158 266 1161 b 396 999 217 1069 300 991 z "},"Ÿ":{"ha":683,"x_min":0,"x_max":0,"o":"m 660 705 b 582 912 691 814 682 839 b 381 834 462 999 381 967 b 328 637 381 734 368 685 b 304 698 266 561 245 615 b 253 854 352 764 353 759 b 85 914 157 945 140 951 b 34 621 -7 851 -22 769 b 49 437 53 571 54 551 b 155 249 40 273 54 249 b 342 366 232 250 281 281 b 395 379 394 440 403 442 b 344 269 384 288 372 262 b 226 229 326 273 292 262 b 116 183 176 204 126 183 b 153 93 80 183 87 167 b 363 31 227 11 244 6 b 662 376 576 76 677 193 b 660 705 644 605 643 648 z m 511 1126 b 404 1133 491 1148 424 1153 b 412 1028 384 1112 389 1052 b 511 1126 476 964 571 1059 z m 200 1021 b 314 1090 253 989 314 1027 b 185 1127 314 1149 218 1176 b 200 1021 165 1096 173 1036 z "},"Ž":{"ha":738,"x_min":0,"x_max":0,"o":"m 710 370 b 541 342 678 457 672 456 b 515 373 421 237 417 241 b 711 763 692 610 711 647 b 359 927 711 954 579 1015 b 192 885 305 906 249 892 b 38 776 96 875 99 877 l 6 723 l 18 542 b 42 348 25 442 36 355 b 179 399 51 339 83 351 b 296 580 324 472 327 476 l 276 649 l 326 622 b 452 510 395 585 461 525 b 343 447 448 503 399 475 b 52 159 112 332 54 275 b 47 50 51 113 49 64 b 125 25 43 24 44 24 b 522 20 411 29 486 28 b 695 133 615 0 630 9 b 710 370 738 214 743 283 z m 369 999 b 433 1063 379 1000 408 1029 l 479 1126 l 451 1145 b 351 1127 412 1171 377 1165 l 330 1095 l 297 1124 b 224 1134 259 1158 239 1161 b 369 999 190 1069 273 991 z "},"ž":{"ha":739,"x_min":0,"x_max":0,"o":"m 711 370 b 543 342 679 457 674 456 b 517 373 422 237 418 242 b 712 764 693 610 712 647 b 361 927 712 954 580 1015 b 193 885 307 906 250 892 b 39 776 98 875 100 877 l 7 723 l 20 542 b 44 348 27 442 38 355 b 180 399 52 339 85 351 b 298 580 325 472 328 477 l 277 649 l 327 622 b 453 510 396 585 463 525 b 345 447 449 503 400 475 b 53 159 114 332 56 275 b 48 50 52 113 50 64 b 126 26 45 24 45 24 b 524 20 412 29 487 28 b 697 133 617 0 631 10 b 711 370 740 214 744 283 z m 371 999 b 435 1063 380 1000 409 1029 l 481 1126 l 452 1145 b 352 1127 413 1171 378 1165 l 331 1095 l 299 1124 b 226 1134 260 1158 240 1161 b 371 999 191 1069 275 991 z "},"ˆ":{"ha":292,"x_min":0,"x_max":0,"o":"m 123 893 b 59 829 113 892 84 863 l 13 766 l 41 747 b 141 765 80 721 115 727 l 162 797 l 195 768 b 268 759 233 734 253 731 b 123 893 302 823 218 901 z "},"ˇ":{"ha":290,"x_min":0,"x_max":0,"o":"m 250 878 b 150 860 211 904 176 898 l 129 828 l 96 857 b 23 867 58 891 38 894 b 168 732 -11 802 72 724 b 232 796 178 733 207 762 l 278 859 z "},"˚":{"ha":342,"x_min":0,"x_max":0,"o":"m 39 898 b 81 686 -2 831 20 724 b 324 817 181 626 324 703 b 39 898 324 954 110 1015 z m 192 799 b 130 830 167 752 130 771 b 182 859 130 875 153 888 b 192 799 204 836 206 825 z "},"˜":{"ha":318,"x_min":0,"x_max":0,"o":"m 277 869 b 217 852 243 882 246 883 l 192 825 l 169 853 b 28 767 100 932 -21 858 b 89 768 42 741 75 741 b 118 774 100 787 102 788 b 160 748 131 763 145 754 b 287 793 215 726 263 743 b 277 869 309 840 307 858 z "},"₣":{"ha":781,"x_min":0,"x_max":0,"o":"m 453 740 l 574 740 b 703 848 725 740 725 740 b 687 929 694 891 687 927 b 622 934 687 939 648 943 b 427 921 604 929 517 923 b 223 784 207 917 214 922 b 240 652 227 725 234 665 b 249 531 245 638 249 584 l 249 435 l 160 432 l 71 429 l 67 395 b 105 199 62 343 85 223 b 211 184 124 176 163 170 b 234 168 238 192 239 191 b 366 38 210 62 214 58 b 444 28 400 33 435 29 b 480 101 472 26 486 54 b 491 244 459 251 457 237 b 474 424 560 258 545 424 b 450 502 451 424 445 446 b 541 518 455 547 479 551 b 619 577 590 492 602 501 b 516 679 643 683 642 685 l 453 677 z "},"₤":{"ha":618,"x_min":0,"x_max":0,"o":"m 548 252 b 311 244 466 239 311 233 b 390 310 311 290 330 306 l 449 313 l 463 357 b 385 425 481 415 471 424 b 313 448 324 427 316 429 b 389 473 310 468 315 470 l 469 476 l 472 521 b 371 585 477 583 462 591 l 298 580 l 305 609 b 371 725 314 643 361 725 b 438 683 376 725 406 706 l 497 641 l 520 665 b 576 750 534 679 559 717 l 608 811 l 554 861 b 255 915 455 951 368 967 b 79 658 118 852 85 804 b 50 548 74 558 73 553 b 53 459 2 536 5 464 b 61 411 88 455 94 417 b 67 328 -5 399 0 328 b 50 158 98 328 83 184 b 38 107 40 150 36 133 l 41 68 l 158 61 b 331 39 223 56 301 47 b 576 144 470 3 514 22 b 548 252 618 228 609 263 z "},"€":{"ha":715,"x_min":0,"x_max":0,"o":"m 648 414 b 523 400 577 481 567 480 b 394 366 473 311 413 295 b 422 419 386 397 393 410 b 451 457 436 423 447 437 b 413 505 459 493 457 497 b 420 552 361 516 366 552 l 461 552 l 461 593 b 428 637 461 632 459 634 b 420 700 387 641 384 666 b 533 699 446 724 450 724 b 650 792 609 676 649 709 b 469 913 650 813 520 900 b 191 720 358 943 235 857 b 138 656 169 651 168 650 b 89 601 102 663 90 649 b 128 566 89 571 92 569 b 133 516 179 561 183 526 b 129 404 47 498 44 404 l 168 404 l 180 331 b 410 58 206 174 277 89 b 691 292 567 20 661 98 l 702 364 z "},"№":{"ha":1044,"x_min":0,"x_max":0,"o":"m 836 343 b 700 324 777 333 716 324 b 671 270 672 324 671 322 b 804 184 672 196 673 195 b 1008 253 1020 166 1008 161 b 836 343 1008 362 989 372 z m 712 762 b 737 389 603 653 617 445 b 1024 591 884 321 1008 407 b 712 762 1040 763 829 879 z m 855 561 b 820 552 831 509 828 508 b 865 666 808 614 836 684 b 855 561 881 656 877 609 z m 616 639 b 500 829 616 846 620 839 l 422 822 l 422 730 l 422 637 l 404 672 b 102 876 324 829 255 876 b 29 562 18 876 21 887 b 80 50 40 97 42 73 b 205 31 105 35 131 31 b 323 166 325 31 326 32 b 382 171 321 281 322 281 b 610 88 445 53 519 26 l 649 114 l 642 177 b 616 639 624 345 616 479 z "},"™":{"ha":713,"x_min":0,"x_max":0,"o":"m 261 740 l 305 736 l 348 732 l 343 806 b 240 907 337 891 337 891 b 15 782 68 936 18 909 b 89 739 14 721 33 710 l 120 755 l 114 637 b 122 509 109 541 110 517 b 249 525 142 495 218 505 b 268 641 275 542 275 543 z m 662 725 b 556 885 624 874 613 890 b 504 826 522 882 519 879 l 488 771 l 474 804 b 408 865 461 835 418 875 b 298 519 395 853 291 526 b 326 507 302 515 315 510 b 443 541 401 489 432 498 l 454 582 l 485 557 b 555 571 533 517 555 522 b 605 566 555 623 562 622 l 639 520 l 668 541 b 662 725 705 567 705 560 z "}}}
